<svg width="144" height="25" viewBox="0 0 144 25" fill="none" xmlns="http://www.w3.org/2000/svg">
<path d="M11 21.5L4 17.7V11.7L0 9.5L11 3.5L22 9.5V17.5H20V10.6L18 11.7V17.7L11 21.5ZM11 13.2L17.85 9.5L11 5.8L4.15 9.5L11 13.2ZM11 19.225L16 16.525V12.75L11 15.5L6 12.75V16.525L11 19.225Z" fill="#EC5B13"/>
<path d="M34.04 20.2C33.32 20.2 32.6167 20.11 31.93 19.93C31.2433 19.75 30.6167 19.48 30.05 19.12C29.4833 18.76 29.0167 18.31 28.65 17.77C28.29 17.23 28.0733 16.5967 28 15.87H30.99C31.09 16.31 31.28 16.68 31.56 16.98C31.8467 17.28 32.2133 17.51 32.66 17.67C33.1133 17.83 33.63 17.91 34.21 17.91C34.67 17.91 35.1067 17.8433 35.52 17.71C35.9333 17.5767 36.27 17.3733 36.53 17.1C36.79 16.8267 36.92 16.4833 36.92 16.07C36.92 15.5767 36.74 15.2067 36.38 14.96C36.02 14.7067 35.53 14.5067 34.91 14.36L32.2 13.77C31.4333 13.61 30.7633 13.3633 30.19 13.03C29.6233 12.69 29.1867 12.25 28.88 11.71C28.5733 11.1633 28.42 10.5 28.42 9.72C28.42 8.82 28.6667 8.04333 29.16 7.39C29.66 6.73667 30.3367 6.23667 31.19 5.89C32.05 5.53667 33.0133 5.36 34.08 5.36C35.2867 5.36 36.3033 5.55667 37.13 5.95C37.9633 6.33667 38.6 6.86333 39.04 7.53C39.48 8.19 39.7033 8.92667 39.71 9.74H36.79C36.7367 9.24 36.5833 8.84 36.33 8.54C36.0767 8.23333 35.75 8.01333 35.35 7.88C34.9567 7.74 34.5067 7.67 34 7.67C33.1267 7.67 32.49 7.84667 32.09 8.2C31.69 8.55333 31.49 8.96333 31.49 9.43C31.49 9.87 31.64 10.2267 31.94 10.5C32.2467 10.7667 32.7367 10.97 33.41 11.11L35.92 11.65C36.8533 11.83 37.61 12.1167 38.19 12.51C38.77 12.8967 39.1933 13.3667 39.46 13.92C39.7267 14.4733 39.86 15.0933 39.86 15.78C39.86 16.6533 39.61 17.4233 39.11 18.09C38.6167 18.75 37.9333 19.2667 37.06 19.64C36.1867 20.0133 35.18 20.2 34.04 20.2ZM41.5977 20V5.14H44.5177V13.95L48.3177 9.66H51.4577L47.6977 13.78L51.5877 20H48.6777L45.8877 15.54L44.5177 17V20H41.5977ZM52.7097 20V9.66H55.4997V20H52.7097ZM52.6797 8.18V5.55H55.5197V8.18H52.6797ZM60.8703 20.18C60.1103 20.18 59.507 20.09 59.0603 19.91C58.6136 19.73 58.2836 19.4933 58.0703 19.2C57.857 18.9 57.7203 18.57 57.6603 18.21C57.6003 17.8433 57.5703 17.4733 57.5703 17.1V5.14H60.4303V16.74C60.4303 17.12 60.5103 17.43 60.6703 17.67C60.837 17.9033 61.147 18.0467 61.6003 18.1L62.0903 18.13V19.93C61.8903 19.9967 61.687 20.0533 61.4803 20.1C61.2736 20.1533 61.0703 20.18 60.8703 20.18ZM66.6594 20.18C65.8994 20.18 65.296 20.09 64.8494 19.91C64.4027 19.73 64.0727 19.4933 63.8594 19.2C63.646 18.9 63.5094 18.57 63.4494 18.21C63.3894 17.8433 63.3594 17.4733 63.3594 17.1V5.14H66.2194V16.74C66.2194 17.12 66.2994 17.43 66.4594 17.67C66.626 17.9033 66.936 18.0467 67.3894 18.1L67.8794 18.13V19.93C67.6794 19.9967 67.476 20.0533 67.2694 20.1C67.0627 20.1533 66.8594 20.18 66.6594 20.18ZM75.1038 20.2C74.5904 20.2 74.1471 20.1333 73.7738 20C73.4004 19.8667 73.0838 19.69 72.8238 19.47C72.5638 19.2433 72.3504 18.9933 72.1838 18.72C72.0171 18.4467 71.8871 18.1667 71.7938 17.88L71.4638 20H69.3438V5.14H72.2738V11.06C72.4004 10.84 72.5638 10.6333 72.7638 10.44C72.9638 10.2467 73.1971 10.0767 73.4638 9.93C73.7304 9.78333 74.0238 9.67 74.3438 9.59C74.6704 9.50333 75.0171 9.46 75.3838 9.46C76.6704 9.46 77.6771 9.92333 78.4038 10.85C79.1371 11.7767 79.5038 13.0833 79.5038 14.77C79.5038 15.8633 79.3371 16.8167 79.0038 17.63C78.6704 18.4433 78.1771 19.0767 77.5238 19.53C76.8704 19.9767 76.0638 20.2 75.1038 20.2ZM74.4638 18.1C75.0904 18.1 75.6104 17.8433 76.0238 17.33C76.4438 16.81 76.6538 15.9433 76.6538 14.73C76.6538 13.6567 76.4538 12.8633 76.0538 12.35C75.6604 11.8367 75.1238 11.58 74.4438 11.58C73.9571 11.58 73.5538 11.6967 73.2337 11.93C72.9138 12.1567 72.6738 12.5033 72.5138 12.97C72.3604 13.4367 72.2804 14.0233 72.2738 14.73C72.2738 15.95 72.4538 16.8167 72.8138 17.33C73.1804 17.8433 73.7304 18.1 74.4638 18.1ZM85.7617 20.2C84.7351 20.2 83.8317 19.9867 83.0517 19.56C82.2784 19.1267 81.6751 18.5167 81.2417 17.73C80.8084 16.9433 80.5917 16.0167 80.5917 14.95C80.5917 13.9167 80.7884 12.9867 81.1817 12.16C81.5817 11.3267 82.1551 10.67 82.9017 10.19C83.6484 9.70333 84.5517 9.46 85.6117 9.46C86.6651 9.46 87.5484 9.68333 88.2617 10.13C88.9751 10.57 89.5151 11.1867 89.8817 11.98C90.2484 12.7667 90.4317 13.6767 90.4317 14.71V15.5H83.4817C83.4817 16.0267 83.5684 16.4867 83.7417 16.88C83.9151 17.2667 84.1651 17.5667 84.4917 17.78C84.8251 17.9867 85.2251 18.09 85.6917 18.09C86.1917 18.09 86.6284 17.9833 87.0017 17.77C87.3751 17.5567 87.6384 17.2067 87.7917 16.72H90.4217C90.3017 17.4533 90.0084 18.08 89.5417 18.6C89.0751 19.12 88.5084 19.5167 87.8417 19.79C87.1751 20.0633 86.4817 20.2 85.7617 20.2ZM83.4817 13.76H87.7017C87.7017 13.3467 87.6217 12.9667 87.4617 12.62C87.3084 12.2733 87.0751 12 86.7617 11.8C86.4551 11.6 86.0684 11.5 85.6017 11.5C85.1551 11.5 84.7717 11.61 84.4517 11.83C84.1384 12.0433 83.8951 12.3233 83.7217 12.67C83.5551 13.0167 83.4751 13.38 83.4817 13.76ZM96.7852 20.2C95.7585 20.2 94.8552 19.9867 94.0752 19.56C93.3018 19.1267 92.6985 18.5167 92.2652 17.73C91.8318 16.9433 91.6152 16.0167 91.6152 14.95C91.6152 13.9167 91.8118 12.9867 92.2052 12.16C92.6052 11.3267 93.1785 10.67 93.9252 10.19C94.6718 9.70333 95.5752 9.46 96.6352 9.46C97.6885 9.46 98.5718 9.68333 99.2852 10.13C99.9985 10.57 100.538 11.1867 100.905 11.98C101.272 12.7667 101.455 13.6767 101.455 14.71V15.5H94.5052C94.5052 16.0267 94.5918 16.4867 94.7652 16.88C94.9385 17.2667 95.1885 17.5667 95.5152 17.78C95.8485 17.9867 96.2485 18.09 96.7152 18.09C97.2152 18.09 97.6518 17.9833 98.0252 17.77C98.3985 17.5567 98.6618 17.2067 98.8152 16.72H101.445C101.325 17.4533 101.032 18.08 100.565 18.6C100.098 19.12 99.5318 19.5167 98.8652 19.79C98.1985 20.0633 97.5052 20.2 96.7852 20.2ZM94.5052 13.76H98.7252C98.7252 13.3467 98.6452 12.9667 98.4852 12.62C98.3318 12.2733 98.0985 12 97.7852 11.8C97.4785 11.6 97.0918 11.5 96.6252 11.5C96.1785 11.5 95.7952 11.61 95.4752 11.83C95.1618 12.0433 94.9185 12.3233 94.7452 12.67C94.5785 13.0167 94.4985 13.38 94.5052 13.76Z" fill="#EC5B13"/>
</svg>
