<svg width="157" height="25" viewBox="0 0 157 25" fill="none" xmlns="http://www.w3.org/2000/svg">
<path d="M25 18.75V10.125L13.75 16.25L0 8.75L13.75 1.25L27.5 8.75V18.75H25ZM13.75 23.75L5 19V12.75L13.75 17.5L22.5 12.75V19L13.75 23.75Z" fill="white"/>
<path d="M46.54 20.2C45.82 20.2 45.1167 20.11 44.43 19.93C43.7433 19.75 43.1167 19.48 42.55 19.12C41.9833 18.76 41.5167 18.31 41.15 17.77C40.79 17.23 40.5733 16.5967 40.5 15.87H43.49C43.59 16.31 43.78 16.68 44.06 16.98C44.3467 17.28 44.7133 17.51 45.16 17.67C45.6133 17.83 46.13 17.91 46.71 17.91C47.17 17.91 47.6067 17.8433 48.02 17.71C48.4333 17.5767 48.77 17.3733 49.03 17.1C49.29 16.8267 49.42 16.4833 49.42 16.07C49.42 15.5767 49.24 15.2067 48.88 14.96C48.52 14.7067 48.03 14.5067 47.41 14.36L44.7 13.77C43.9333 13.61 43.2633 13.3633 42.69 13.03C42.1233 12.69 41.6867 12.25 41.38 11.71C41.0733 11.1633 40.92 10.5 40.92 9.72C40.92 8.82 41.1667 8.04333 41.66 7.39C42.16 6.73667 42.8367 6.23667 43.69 5.89C44.55 5.53667 45.5133 5.36 46.58 5.36C47.7867 5.36 48.8033 5.55667 49.63 5.95C50.4633 6.33667 51.1 6.86333 51.54 7.53C51.98 8.19 52.2033 8.92667 52.21 9.74H49.29C49.2367 9.24 49.0833 8.84 48.83 8.54C48.5767 8.23333 48.25 8.01333 47.85 7.88C47.4567 7.74 47.0067 7.67 46.5 7.67C45.6267 7.67 44.99 7.84667 44.59 8.2C44.19 8.55333 43.99 8.96333 43.99 9.43C43.99 9.87 44.14 10.2267 44.44 10.5C44.7467 10.7667 45.2367 10.97 45.91 11.11L48.42 11.65C49.3533 11.83 50.11 12.1167 50.69 12.51C51.27 12.8967 51.6933 13.3667 51.96 13.92C52.2267 14.4733 52.36 15.0933 52.36 15.78C52.36 16.6533 52.11 17.4233 51.61 18.09C51.1167 18.75 50.4333 19.2667 49.56 19.64C48.6867 20.0133 47.68 20.2 46.54 20.2ZM54.0977 20V5.14H57.0177V13.95L60.8177 9.66H63.9577L60.1977 13.78L64.0877 20H61.1777L58.3877 15.54L57.0177 17V20H54.0977ZM65.2097 20V9.66H67.9997V20H65.2097ZM65.1797 8.18V5.55H68.0197V8.18H65.1797ZM73.3703 20.18C72.6103 20.18 72.007 20.09 71.5603 19.91C71.1136 19.73 70.7836 19.4933 70.5703 19.2C70.357 18.9 70.2203 18.57 70.1603 18.21C70.1003 17.8433 70.0703 17.4733 70.0703 17.1V5.14H72.9303V16.74C72.9303 17.12 73.0103 17.43 73.1703 17.67C73.337 17.9033 73.647 18.0467 74.1003 18.1L74.5903 18.13V19.93C74.3903 19.9967 74.187 20.0533 73.9803 20.1C73.7736 20.1533 73.5703 20.18 73.3703 20.18ZM79.1594 20.18C78.3994 20.18 77.796 20.09 77.3494 19.91C76.9027 19.73 76.5727 19.4933 76.3594 19.2C76.146 18.9 76.0094 18.57 75.9494 18.21C75.8894 17.8433 75.8594 17.4733 75.8594 17.1V5.14H78.7194V16.74C78.7194 17.12 78.7994 17.43 78.9594 17.67C79.126 17.9033 79.436 18.0467 79.8894 18.1L80.3794 18.13V19.93C80.1794 19.9967 79.976 20.0533 79.7694 20.1C79.5627 20.1533 79.3594 20.18 79.1594 20.18ZM87.6038 20.2C87.0904 20.2 86.6471 20.1333 86.2738 20C85.9004 19.8667 85.5838 19.69 85.3238 19.47C85.0638 19.2433 84.8504 18.9933 84.6838 18.72C84.5171 18.4467 84.3871 18.1667 84.2938 17.88L83.9638 20H81.8438V5.14H84.7738V11.06C84.9004 10.84 85.0638 10.6333 85.2638 10.44C85.4638 10.2467 85.6971 10.0767 85.9638 9.93C86.2304 9.78333 86.5238 9.67 86.8438 9.59C87.1704 9.50333 87.5171 9.46 87.8838 9.46C89.1704 9.46 90.1771 9.92333 90.9038 10.85C91.6371 11.7767 92.0038 13.0833 92.0038 14.77C92.0038 15.8633 91.8371 16.8167 91.5038 17.63C91.1704 18.4433 90.6771 19.0767 90.0238 19.53C89.3704 19.9767 88.5638 20.2 87.6038 20.2ZM86.9638 18.1C87.5904 18.1 88.1104 17.8433 88.5238 17.33C88.9438 16.81 89.1538 15.9433 89.1538 14.73C89.1538 13.6567 88.9538 12.8633 88.5538 12.35C88.1604 11.8367 87.6238 11.58 86.9438 11.58C86.4571 11.58 86.0538 11.6967 85.7337 11.93C85.4138 12.1567 85.1738 12.5033 85.0138 12.97C84.8604 13.4367 84.7804 14.0233 84.7738 14.73C84.7738 15.95 84.9538 16.8167 85.3138 17.33C85.6804 17.8433 86.2304 18.1 86.9638 18.1ZM98.2617 20.2C97.2351 20.2 96.3317 19.9867 95.5517 19.56C94.7784 19.1267 94.1751 18.5167 93.7417 17.73C93.3084 16.9433 93.0917 16.0167 93.0917 14.95C93.0917 13.9167 93.2884 12.9867 93.6817 12.16C94.0817 11.3267 94.6551 10.67 95.4017 10.19C96.1484 9.70333 97.0517 9.46 98.1117 9.46C99.1651 9.46 100.048 9.68333 100.762 10.13C101.475 10.57 102.015 11.1867 102.382 11.98C102.748 12.7667 102.932 13.6767 102.932 14.71V15.5H95.9817C95.9817 16.0267 96.0684 16.4867 96.2417 16.88C96.4151 17.2667 96.6651 17.5667 96.9917 17.78C97.3251 17.9867 97.7251 18.09 98.1917 18.09C98.6917 18.09 99.1284 17.9833 99.5017 17.77C99.8751 17.5567 100.138 17.2067 100.292 16.72H102.922C102.802 17.4533 102.508 18.08 102.042 18.6C101.575 19.12 101.008 19.5167 100.342 19.79C99.6751 20.0633 98.9817 20.2 98.2617 20.2ZM95.9817 13.76H100.202C100.202 13.3467 100.122 12.9667 99.9617 12.62C99.8084 12.2733 99.5751 12 99.2617 11.8C98.9551 11.6 98.5684 11.5 98.1017 11.5C97.6551 11.5 97.2717 11.61 96.9517 11.83C96.6384 12.0433 96.3951 12.3233 96.2217 12.67C96.0551 13.0167 95.9751 13.38 95.9817 13.76ZM109.285 20.2C108.258 20.2 107.355 19.9867 106.575 19.56C105.802 19.1267 105.198 18.5167 104.765 17.73C104.332 16.9433 104.115 16.0167 104.115 14.95C104.115 13.9167 104.312 12.9867 104.705 12.16C105.105 11.3267 105.678 10.67 106.425 10.19C107.172 9.70333 108.075 9.46 109.135 9.46C110.188 9.46 111.072 9.68333 111.785 10.13C112.498 10.57 113.038 11.1867 113.405 11.98C113.772 12.7667 113.955 13.6767 113.955 14.71V15.5H107.005C107.005 16.0267 107.092 16.4867 107.265 16.88C107.438 17.2667 107.688 17.5667 108.015 17.78C108.348 17.9867 108.748 18.09 109.215 18.09C109.715 18.09 110.152 17.9833 110.525 17.77C110.898 17.5567 111.162 17.2067 111.315 16.72H113.945C113.825 17.4533 113.532 18.08 113.065 18.6C112.598 19.12 112.032 19.5167 111.365 19.79C110.698 20.0633 110.005 20.2 109.285 20.2ZM107.005 13.76H111.225C111.225 13.3467 111.145 12.9667 110.985 12.62C110.832 12.2733 110.598 12 110.285 11.8C109.978 11.6 109.592 11.5 109.125 11.5C108.678 11.5 108.295 11.61 107.975 11.83C107.662 12.0433 107.418 12.3233 107.245 12.67C107.078 13.0167 106.998 13.38 107.005 13.76Z" fill="white"/>
</svg>
