<svg width="116" height="28" viewBox="0 0 116 28" fill="none" xmlns="http://www.w3.org/2000/svg">
<rect x="16" y="2" width="24" height="24" rx="8" fill="#EC5B13"/>
<path d="M28.0003 20L23.3337 17.4667V13.4667L20.667 12L28.0003 8L35.3337 12V17.3333H34.0003V12.7333L32.667 13.4667V17.4667L28.0003 20ZM28.0003 14.4667L32.567 12L28.0003 9.53333L23.4337 12L28.0003 14.4667ZM28.0003 18.4833L31.3337 16.6833V14.1667L28.0003 16L24.667 14.1667V16.6833L28.0003 18.4833Z" fill="white"/>
<path d="M54.3399 21.18C53.6867 21.18 53.0517 21.0993 52.435 20.9378C51.8183 20.7764 51.2557 20.5336 50.747 20.2094C50.2383 19.8852 49.8196 19.4796 49.4909 18.9924C49.1622 18.5053 48.9643 17.9351 48.8972 17.2819H51.5949C51.6816 17.676 51.8529 18.0092 52.1091 18.2814C52.3652 18.5537 52.696 18.761 53.1016 18.9033C53.5072 19.0456 53.9694 19.1167 54.4884 19.1167C54.8998 19.1167 55.2917 19.0569 55.6641 18.9373C56.0364 18.8177 56.3408 18.6355 56.577 18.3908C56.8133 18.1462 56.9314 17.8367 56.9314 17.4624C56.9314 17.0188 56.7693 16.6848 56.4451 16.4603C56.1209 16.2359 55.6802 16.0584 55.1229 15.9279L52.6834 15.3913C51.9881 15.2477 51.3851 15.025 50.8744 14.7233C50.3636 14.4217 49.9698 14.026 49.6928 13.5365C49.4159 13.0469 49.2774 12.45 49.2774 11.7458C49.2774 10.9373 49.5012 10.2394 49.9488 9.65213C50.3963 9.06488 51.0052 8.61337 51.7755 8.29762C52.5457 7.98187 53.4124 7.824 54.3754 7.824C55.4569 7.824 56.3717 7.99941 57.1198 8.35022C57.8679 8.70103 58.4395 9.17513 58.8346 9.7725C59.2297 10.3699 59.4324 11.0359 59.4429 11.7705H56.8071C56.7617 11.3149 56.6255 10.9513 56.3984 10.6798C56.1713 10.4083 55.8787 10.2104 55.5206 10.0861C55.1625 9.96178 54.7552 9.89963 54.2989 9.89963C53.5159 9.89963 52.9433 10.0596 52.5813 10.3794C52.2192 10.6993 52.0382 11.0681 52.0382 11.4859C52.0382 11.8815 52.1756 12.2015 52.4505 12.4458C52.7254 12.6901 53.1639 12.876 53.7662 13.0035L56.0246 13.4873C56.8669 13.6481 57.5489 13.9043 58.0707 14.2559C58.5925 14.6075 58.9736 15.0326 59.214 15.5314C59.4544 16.0301 59.5746 16.5872 59.5746 17.2026C59.5746 17.9886 59.3507 18.6801 58.9029 19.2771C58.4552 19.8741 57.839 20.3405 57.0543 20.6763C56.2696 21.0121 55.3648 21.18 54.3399 21.18ZM61.131 21V7.626H63.7545V15.5516L67.1767 11.694H70.0044L66.6249 15.3997L70.1237 21H67.5036L64.9897 16.9838L63.7545 18.3045V21H61.131ZM71.1373 21V11.694H73.6489V21H71.1373ZM71.112 10.3586V7.99163H73.6686V10.3586H71.112ZM78.4937 21.1586C77.8063 21.1586 77.2624 21.0779 76.8619 20.9165C76.4614 20.755 76.1653 20.5414 75.9737 20.2755C75.7821 20.0096 75.6589 19.7123 75.6041 19.3837C75.5494 19.055 75.522 18.7234 75.522 18.3889V7.626H78.0988V18.0671C78.0988 18.4072 78.1722 18.6847 78.319 18.8996C78.4658 19.1145 78.7425 19.2446 79.149 19.29L79.5861 19.3147V20.9381C79.4098 20.9992 79.228 21.0513 79.0407 21.0942C78.8534 21.1372 78.6711 21.1586 78.4937 21.1586ZM83.6957 21.1586C83.0083 21.1586 82.4644 21.0779 82.0639 20.9165C81.6634 20.755 81.3673 20.5414 81.1757 20.2755C80.9841 20.0096 80.8609 19.7123 80.8061 19.3837C80.7514 19.055 80.724 18.7234 80.724 18.3889V7.626H83.3008V18.0671C83.3008 18.4072 83.3742 18.6847 83.521 18.8996C83.6678 19.1145 83.9445 19.2446 84.351 19.29L84.7881 19.3147V20.9381C84.6118 20.9992 84.43 21.0513 84.2427 21.0942C84.0554 21.1372 83.8731 21.1586 83.6957 21.1586ZM91.2861 21.18C90.8293 21.18 90.4327 21.1203 90.0961 21.0008C89.7595 20.8814 89.4739 20.7214 89.2391 20.5208C89.0044 20.3201 88.8125 20.096 88.6634 19.8483C88.5143 19.6006 88.3971 19.3485 88.3116 19.092L88.0101 21H86.106V7.626H88.7441V12.9529C88.8562 12.7541 89.0024 12.5682 89.1826 12.3952C89.3628 12.2221 89.5731 12.0698 89.8134 11.9384C90.0538 11.807 90.3188 11.7034 90.6085 11.6276C90.8982 11.5519 91.2107 11.514 91.5459 11.514C92.6994 11.514 93.6053 11.9307 94.2637 12.7642C94.922 13.5976 95.2511 14.7746 95.2511 16.2952C95.2511 17.2796 95.1008 18.1373 94.8003 18.8684C94.4997 19.5995 94.0552 20.1675 93.4669 20.5725C92.8785 20.9775 92.1516 21.18 91.2861 21.18ZM90.7112 19.2889C91.2778 19.2889 91.7481 19.056 92.1219 18.5903C92.4958 18.1245 92.6827 17.3473 92.6827 16.2587C92.6827 15.2897 92.5042 14.5748 92.1472 14.1142C91.7902 13.6535 91.3059 13.4231 90.6943 13.4231C90.2593 13.4231 89.898 13.5268 89.6104 13.7342C89.3227 13.9416 89.1074 14.2555 88.9643 14.6761C88.8213 15.0967 88.7479 15.6242 88.7441 16.2587C88.7441 17.3586 88.9067 18.1386 89.2318 18.5987C89.5569 19.0588 90.0501 19.2889 90.7112 19.2889ZM100.88 21.18C99.9609 21.18 99.1517 20.9872 98.4523 20.6017C97.7529 20.2163 97.2082 19.6695 96.818 18.9615C96.4278 18.2535 96.2327 17.4173 96.2327 16.4528C96.2327 15.5216 96.4108 14.6834 96.7671 13.9381C97.1233 13.1928 97.638 12.6024 98.3111 12.1671C98.9843 11.7317 99.7963 11.514 100.747 11.514C101.696 11.514 102.492 11.7137 103.135 12.1131C103.778 12.5124 104.264 13.0672 104.591 13.7775C104.919 14.4877 105.083 15.3075 105.083 16.2367V16.9511H98.8354C98.8313 17.4262 98.907 17.8385 99.0626 18.1878C99.2183 18.5371 99.445 18.807 99.743 18.9975C100.041 19.188 100.399 19.2832 100.818 19.2832C101.267 19.2832 101.661 19.1867 102 18.9936C102.338 18.8004 102.574 18.4845 102.707 18.0458H105.074C104.971 18.7076 104.708 19.2727 104.286 19.7408C103.864 20.209 103.353 20.5659 102.753 20.8116C102.153 21.0572 101.529 21.18 100.88 21.18ZM98.8286 15.3885H102.628C102.628 15.012 102.559 14.6689 102.419 14.3591C102.28 14.0494 102.071 13.8036 101.792 13.6217C101.513 13.4398 101.163 13.3489 100.742 13.3489C100.339 13.3489 99.9944 13.4468 99.7092 13.6428C99.424 13.8387 99.2055 14.093 99.0536 14.4055C98.9018 14.7181 98.8268 15.0457 98.8286 15.3885ZM110.807 21.18C109.888 21.18 109.079 20.9872 108.379 20.6017C107.68 20.2163 107.135 19.6695 106.745 18.9615C106.355 18.2535 106.16 17.4173 106.16 16.4528C106.16 15.5216 106.338 14.6834 106.694 13.9381C107.05 13.1928 107.565 12.6024 108.238 12.1671C108.911 11.7317 109.723 11.514 110.674 11.514C111.623 11.514 112.419 11.7137 113.062 12.1131C113.705 12.5124 114.191 13.0672 114.518 13.7775C114.846 14.4877 115.01 15.3075 115.01 16.2367V16.9511H108.762C108.758 17.4262 108.834 17.8385 108.99 18.1878C109.145 18.5371 109.372 18.807 109.67 18.9975C109.968 19.188 110.326 19.2832 110.745 19.2832C111.194 19.2832 111.588 19.1867 111.927 18.9936C112.265 18.8004 112.501 18.4845 112.633 18.0458H115.001C114.898 18.7076 114.635 19.2727 114.213 19.7408C113.791 20.209 113.28 20.5659 112.68 20.8116C112.08 21.0572 111.456 21.18 110.807 21.18ZM108.756 15.3885H112.555C112.555 15.012 112.486 14.6689 112.346 14.3591C112.207 14.0494 111.997 13.8036 111.719 13.6217C111.44 13.4398 111.09 13.3489 110.669 13.3489C110.266 13.3489 109.921 13.4468 109.636 13.6428C109.351 13.8387 109.132 14.093 108.981 14.4055C108.829 14.7181 108.754 15.0457 108.756 15.3885Z" fill="#0F172A"/>
</svg>
