<svg width="48" height="48" viewBox="0 0 48 48" fill="none" xmlns="http://www.w3.org/2000/svg">
<rect width="48" height="48" rx="12" fill="#FCDED3"/>
<path d="M24 18.253V31.253M24 18.253C22.832 17.477 21.246 17 19.5 17C17.754 17 16.168 17.477 15 18.253V31.253C16.168 30.477 17.754 30 19.5 30C21.246 30 22.832 30.477 24 31.253M24 18.253C25.168 17.477 26.754 17 28.5 17C30.247 17 31.832 17.477 33 18.253V31.253C31.832 30.477 30.247 30 28.5 30C26.754 30 25.168 30.477 24 31.253" stroke="#F17447" stroke-width="2" stroke-linecap="round" stroke-linejoin="round"/>
</svg>
