<svg width="15" height="17" viewBox="0 0 15 17" fill="none" xmlns="http://www.w3.org/2000/svg">
<circle cx="7.5" cy="9.5" r="7" stroke="black"/>
<path d="M7.22678 13.1431C6.54047 13.1431 5.94956 12.9877 5.45406 12.6768C4.96163 12.3629 4.58308 11.9305 4.3184 11.3796C4.05373 10.8287 3.92139 10.1978 3.92139 9.48686C3.92139 8.76669 4.0568 8.13115 4.32764 7.58026C4.59847 7.02628 4.9801 6.59387 5.47252 6.28303C5.96495 5.97218 6.54508 5.81676 7.21294 5.81676C7.75152 5.81676 8.23164 5.91679 8.65328 6.11683C9.07491 6.3138 9.41499 6.59079 9.67352 6.9478C9.93512 7.30481 10.0905 7.72183 10.1398 8.19886H8.79639C8.72252 7.86648 8.55325 7.58026 8.28857 7.3402C8.02697 7.10014 7.67612 6.98011 7.23602 6.98011C6.85131 6.98011 6.51431 7.08168 6.22501 7.2848C5.93879 7.48485 5.71566 7.77107 5.55562 8.14347C5.39558 8.51278 5.31556 8.94981 5.31556 9.45455C5.31556 9.97159 5.39404 10.4179 5.551 10.7933C5.70796 11.1688 5.92955 11.4596 6.21578 11.6658C6.50508 11.872 6.84516 11.9751 7.23602 11.9751C7.49762 11.9751 7.7346 11.9274 7.94695 11.832C8.16239 11.7335 8.34243 11.5935 8.48708 11.4119C8.63481 11.2304 8.73791 11.0118 8.79639 10.7564H10.1398C10.0905 11.215 9.94127 11.6243 9.69198 11.9844C9.44269 12.3445 9.10877 12.6276 8.69021 12.8338C8.27473 13.04 7.78692 13.1431 7.22678 13.1431Z" fill="black"/>
</svg>
