<svg width="42" height="42" viewBox="0 0 42 42" fill="none" xmlns="http://www.w3.org/2000/svg">
<rect width="41.8315" height="41.8458" rx="6.45161" fill="#9691FF"/>
<path d="M18.5032 24.5426L17.3032 23.3426C16.5032 23.1426 15.3032 23.2426 14.6032 24.3426C13.8032 25.4426 14.3032 27.1426 12.9032 28.9426C12.9032 28.9426 16.4032 28.9426 17.7032 27.6426C18.9032 26.4426 18.9032 25.4426 18.7032 24.6426L18.5032 24.5426ZM18.7032 21.0426C18.5032 21.3426 18.2032 21.7426 18.0032 22.0426C18.0032 22.2426 17.9032 22.3426 17.8032 22.4426L19.3032 23.9426C19.4032 23.8426 19.6032 23.7426 19.7032 23.6426C20.0032 23.4426 20.4032 23.2426 20.7032 22.9426C21.1032 22.9426 21.3032 22.7426 21.5032 22.5426L19.3032 20.3426C19.1032 20.5426 18.9032 20.7426 18.7032 21.0426ZM28.7032 13.1426C28.4032 12.8426 28.0032 12.8426 27.7032 13.0426C27.7032 13.0426 24.7032 15.5426 21.8032 18.1426C21.4032 18.5426 21.1032 18.8426 20.7032 19.1426C20.5032 19.3426 20.3032 19.5426 20.1032 19.6426L22.2032 21.7426C22.4032 21.5426 22.6032 21.3426 22.7032 21.0426C23.0032 20.6426 23.3032 20.3426 23.6032 19.9426C26.1032 16.9426 28.7032 14.0426 28.7032 14.0426C29.0032 13.8426 29.0032 13.4426 28.7032 13.1426Z" fill="#554DE6"/>
</svg>
