<svg width="48" height="48" viewBox="0 0 48 48" fill="none" xmlns="http://www.w3.org/2000/svg">
<rect width="48" height="48" rx="16" fill="#EC5B13" fill-opacity="0.1"/>
<path d="M21.9 26.1C21.3667 25.5667 20.8792 25.0083 20.4375 24.425C19.9958 23.8417 19.5917 23.225 19.225 22.575C19.1417 22.8083 19.0875 23.0458 19.0625 23.2875C19.0375 23.5292 19.025 23.7667 19.025 24C19.025 25.3833 19.5083 26.5583 20.475 27.525C21.4417 28.4917 22.6167 28.975 24 28.975C24.2333 28.975 24.4708 28.9583 24.7125 28.925C24.9542 28.8917 25.1917 28.8417 25.425 28.775C24.775 28.4083 24.1583 28.0042 23.575 27.5625C22.9917 27.1208 22.4333 26.6333 21.9 26.1ZM23.325 24.7C24.175 25.55 25.125 26.2792 26.175 26.8875C27.225 27.4958 28.35 27.9667 29.55 28.3C28.8833 29.15 28.0667 29.8125 27.1 30.2875C26.1333 30.7625 25.1083 31 24.025 31C22.075 31 20.4208 30.3208 19.0625 28.9625C17.7042 27.6042 17.025 25.95 17.025 24C17.025 22.9167 17.2625 21.8917 17.7375 20.925C18.2125 19.9583 18.875 19.1417 19.725 18.475C20.0583 19.675 20.5292 20.8 21.1375 21.85C21.7458 22.9 22.475 23.85 23.325 24.7ZM30.575 26.5C30.2417 26.4167 29.9125 26.325 29.5875 26.225C29.2625 26.125 28.9417 26.0083 28.625 25.875C28.7583 25.575 28.8542 25.2708 28.9125 24.9625C28.9708 24.6542 29 24.3333 29 24C29 22.6167 28.5125 21.4375 27.5375 20.4625C26.5625 19.4875 25.3833 19 24 19C23.6667 19 23.3458 19.0292 23.0375 19.0875C22.7292 19.1458 22.425 19.2417 22.125 19.375C21.9917 19.0583 21.8792 18.7417 21.7875 18.425C21.6958 18.1083 21.6083 17.7833 21.525 17.45C21.925 17.3 22.3333 17.1875 22.75 17.1125C23.1667 17.0375 23.5917 17 24.025 17C25.975 17 27.6292 17.6792 28.9875 19.0375C30.3458 20.3958 31.025 22.05 31.025 24C31.025 24.4333 30.9875 24.8583 30.9125 25.275C30.8375 25.6917 30.725 26.1 30.575 26.5ZM23 15V12H25V15H23ZM23 36V33H25V36H23ZM31.075 18.35L29.65 16.925L31.775 14.825L33.2 16.225L31.075 18.35ZM16.225 33.175L14.8 31.775L16.925 29.65L18.35 31.075L16.225 33.175ZM33 25V23H36V25H33ZM12 25V23H15V25H12ZM31.775 33.2L29.65 31.075L31.075 29.65L33.175 31.775L31.775 33.2ZM16.925 18.35L14.825 16.225L16.225 14.8L18.35 16.925L16.925 18.35Z" fill="#EC5B13"/>
</svg>
