<svg width="46" height="46" viewBox="0 0 46 46" fill="none" xmlns="http://www.w3.org/2000/svg">
<rect width="45.8064" height="45.8064" rx="6.45161" fill="#FF8AA3"/>
<path d="M28.9032 28.9032C31.1123 28.9032 32.9032 25.3215 32.9032 20.9032C32.9032 16.4849 31.1123 12.9032 28.9032 12.9032C26.6941 12.9032 24.9032 16.4849 24.9032 20.9032C24.9032 25.3215 26.6941 28.9032 28.9032 28.9032Z" fill="#E22750" stroke="#E22750" stroke-width="1.5"/>
<path d="M28.9032 12.9032C25.8002 12.9032 19.3682 15.2812 15.6742 16.7572C13.9822 17.4332 12.9032 19.0812 12.9032 20.9032C12.9032 22.7252 13.9832 24.3732 15.6742 25.0492C19.3682 26.5252 25.8002 28.9032 28.9032 28.9032" fill="#E22750"/>
<path d="M28.9032 12.9032C25.8002 12.9032 19.3682 15.2812 15.6742 16.7572C13.9822 17.4332 12.9032 19.0812 12.9032 20.9032C12.9032 22.7252 13.9832 24.3732 15.6742 25.0492C19.3682 26.5252 25.8002 28.9032 28.9032 28.9032" stroke="#E22750" stroke-width="1.5"/>
<path d="M21.9032 32.9032L19.9602 31.8332C18.9229 31.2591 18.0814 30.3873 17.5445 29.3302C17.0076 28.2732 16.7999 27.0795 16.9482 25.9032" fill="#E22750"/>
<path d="M21.9032 32.9032L19.9602 31.8332C18.9229 31.2591 18.0814 30.3873 17.5445 29.3302C17.0076 28.2732 16.7999 27.0795 16.9482 25.9032" stroke="#E22750" stroke-width="1.5" stroke-linecap="round" stroke-linejoin="round"/>
</svg>
