<svg width="43" height="44" viewBox="0 0 43 44" fill="none" xmlns="http://www.w3.org/2000/svg">
<rect width="42.9985" height="43.6645" rx="6.45161" fill="#FFBF73"/>
<path d="M17.2872 21.4612V17.7112C17.2872 17.4872 17.3659 17.2966 17.5232 17.1392C17.6799 16.9819 17.8705 16.9032 18.0952 16.9032C18.3199 16.9032 18.5105 16.9819 18.6672 17.1392C18.8245 17.2966 18.9032 17.4872 18.9032 17.7112V21.4612C18.9032 21.6859 18.8245 21.8766 18.6672 22.0332C18.5099 22.1906 18.3192 22.2692 18.0952 22.2692C17.8712 22.2692 17.6805 22.1906 17.5232 22.0332C17.3659 21.8759 17.2872 21.6852 17.2872 21.4612ZM21.6342 22.7552V13.7112C21.6342 13.4872 21.7125 13.2966 21.8692 13.1392C22.0265 12.9819 22.2172 12.9032 22.4412 12.9032C22.6659 12.9032 22.8565 12.9819 23.0132 13.1392C23.1705 13.2966 23.2492 13.4872 23.2492 13.7112V22.7552C23.2492 23.0246 23.1665 23.2266 23.0012 23.3612C22.8352 23.4959 22.6495 23.5632 22.4442 23.5632C22.2389 23.5632 22.0522 23.4959 21.8842 23.3612C21.7162 23.2266 21.6329 23.0246 21.6342 22.7552ZM12.9032 24.8972V21.7112C12.9032 21.4872 12.9815 21.2966 13.1382 21.1392C13.2955 20.9819 13.4865 20.9032 13.7112 20.9032C13.9359 20.9032 14.1265 20.9819 14.2832 21.1392C14.4399 21.2966 14.5182 21.4872 14.5182 21.7112V24.8982C14.5182 25.1676 14.4355 25.3692 14.2702 25.5032C14.1049 25.6379 13.9192 25.7052 13.7132 25.7052C13.5079 25.7052 13.3212 25.6379 13.1532 25.5032C12.9865 25.3692 12.9032 25.1676 12.9032 24.8982M13.9882 30.7612C13.7649 30.7612 13.6105 30.6596 13.5252 30.4562C13.4399 30.2536 13.4785 30.0706 13.6412 29.9072L17.5492 26.0002C17.6939 25.8549 17.8722 25.7739 18.0842 25.7572C18.2962 25.7406 18.4845 25.8049 18.6492 25.9502L21.6342 28.5152L28.3872 21.7612H26.5952C26.4532 21.7612 26.3345 21.7132 26.2392 21.6172C26.1439 21.5212 26.0959 21.4022 26.0952 21.2602C26.0945 21.1182 26.1425 20.9996 26.2392 20.9042C26.3359 20.8089 26.4545 20.7612 26.5952 20.7612H29.2872C29.5165 20.7612 29.7085 20.8386 29.8632 20.9932C30.0179 21.1479 30.0952 21.3399 30.0952 21.5692V24.2612C30.0952 24.4032 30.0472 24.5219 29.9512 24.6172C29.8552 24.7126 29.7362 24.7606 29.5942 24.7612C29.4522 24.7619 29.3335 24.7139 29.2382 24.6172C29.1429 24.5206 29.0952 24.4019 29.0952 24.2612V22.4692L22.1912 29.3732C22.0465 29.5179 21.8682 29.5986 21.6562 29.6152C21.4442 29.6319 21.2559 29.5676 21.0912 29.4222L18.1062 26.8572L14.3492 30.6152C14.3065 30.6552 14.2529 30.6896 14.1882 30.7182C14.1235 30.7469 14.0569 30.7612 13.9882 30.7612Z" fill="#D97807"/>
</svg>
