<svg width="48" height="48" viewBox="0 0 48 48" fill="none" xmlns="http://www.w3.org/2000/svg">
<rect width="48" height="48" rx="12" fill="#FFEDD5"/>
<path d="M18 25.5C18 26.3667 18.175 27.1875 18.525 27.9625C18.875 28.7375 19.375 29.4167 20.025 30C20.0083 29.9167 20 29.8417 20 29.775C20 29.7083 20 29.6333 20 29.55C20 29.0167 20.1 28.5167 20.3 28.05C20.5 27.5833 20.7917 27.1583 21.175 26.775L24 24L26.825 26.775C27.2083 27.1583 27.5 27.5833 27.7 28.05C27.9 28.5167 28 29.0167 28 29.55C28 29.6333 28 29.7083 28 29.775C28 29.8417 27.9917 29.9167 27.975 30C28.625 29.4167 29.125 28.7375 29.475 27.9625C29.825 27.1875 30 26.3667 30 25.5C30 24.6667 29.8458 23.8792 29.5375 23.1375C29.2292 22.3958 28.7833 21.7333 28.2 21.15C27.8667 21.3667 27.5167 21.5292 27.15 21.6375C26.7833 21.7458 26.4083 21.8 26.025 21.8C24.9917 21.8 24.0958 21.4583 23.3375 20.775C22.5792 20.0917 22.1417 19.25 22.025 18.25C21.375 18.8 20.8 19.3708 20.3 19.9625C19.8 20.5542 19.3792 21.1542 19.0375 21.7625C18.6958 22.3708 18.4375 22.9917 18.2625 23.625C18.0875 24.2583 18 24.8833 18 25.5ZM24 26.8L22.575 28.2C22.3917 28.3833 22.25 28.5917 22.15 28.825C22.05 29.0583 22 29.3 22 29.55C22 30.0833 22.1958 30.5417 22.5875 30.925C22.9792 31.3083 23.45 31.5 24 31.5C24.55 31.5 25.0208 31.3083 25.4125 30.925C25.8042 30.5417 26 30.0833 26 29.55C26 29.2833 25.95 29.0375 25.85 28.8125C25.75 28.5875 25.6083 28.3833 25.425 28.2L24 26.8ZM24 14.5V17.8C24 18.3667 24.1958 18.8417 24.5875 19.225C24.9792 19.6083 25.4583 19.8 26.025 19.8C26.325 19.8 26.6042 19.7375 26.8625 19.6125C27.1208 19.4875 27.35 19.3 27.55 19.05L28 18.5C29.2333 19.2 30.2083 20.175 30.925 21.425C31.6417 22.675 32 24.0333 32 25.5C32 27.7333 31.225 29.625 29.675 31.175C28.125 32.725 26.2333 33.5 24 33.5C21.7667 33.5 19.875 32.725 18.325 31.175C16.775 29.625 16 27.7333 16 25.5C16 23.35 16.7208 21.3083 18.1625 19.375C19.6042 17.4417 21.55 15.8167 24 14.5Z" fill="#EC5B13"/>
</svg>
