<svg width="35" height="40" viewBox="0 0 35 40" fill="none" xmlns="http://www.w3.org/2000/svg">
<rect width="34.1936" height="39.3595" rx="5" fill="#D8E6FF"/>
<path d="M24.1935 17.101C24.1943 15.905 23.8927 14.7283 23.3169 13.68C22.7411 12.6318 21.9097 11.7461 20.9 11.1052C19.8903 10.4642 18.735 10.0889 17.5414 10.0139C16.3477 9.93902 15.1546 10.167 14.0726 10.6766C12.9907 11.1862 12.0551 11.9611 11.3527 12.9291C10.6504 13.8971 10.204 15.0269 10.0552 16.2135C9.90633 17.4002 10.0598 18.6052 10.5013 19.7167C10.9428 20.8282 11.6581 21.8101 12.5806 22.5711V28.7139C12.5806 28.8239 12.6086 28.9321 12.6622 29.0283C12.7157 29.1244 12.7929 29.2052 12.8865 29.2631C12.9801 29.321 13.0869 29.3539 13.1968 29.3589C13.3068 29.3638 13.4161 29.3405 13.5145 29.2913L17.0968 27.5042L20.6798 29.2953C20.7697 29.3382 20.8682 29.36 20.9677 29.3591C21.1388 29.3591 21.3029 29.2911 21.4239 29.1701C21.5449 29.0491 21.6129 28.885 21.6129 28.7139V22.5711C22.4201 21.9063 23.0701 21.0711 23.5163 20.1253C23.9625 19.1795 24.1938 18.1467 24.1935 17.101ZM11.2903 17.101C11.2903 15.9526 11.6309 14.83 12.2689 13.8751C12.9069 12.9202 13.8138 12.176 14.8747 11.7365C15.9357 11.2971 17.1032 11.1821 18.2296 11.4061C19.3559 11.6301 20.3905 12.1832 21.2026 12.9952C22.0146 13.8073 22.5676 14.8419 22.7917 15.9682C23.0157 17.0945 22.9007 18.262 22.4612 19.323C22.0218 20.384 21.2775 21.2909 20.3227 21.9289C19.3678 22.5669 18.2452 22.9074 17.0968 22.9074C15.5573 22.9057 14.0814 22.2934 12.9929 21.2049C11.9043 20.1163 11.292 18.6404 11.2903 17.101ZM20.3226 27.6703L17.3847 26.2018C17.295 26.1569 17.1962 26.1336 17.096 26.1336C16.9957 26.1336 16.8969 26.1569 16.8073 26.2018L13.871 27.6703V23.4211C14.8696 23.9316 15.9752 24.1978 17.0968 24.1978C18.2183 24.1978 19.3239 23.9316 20.3226 23.4211V27.6703ZM17.0968 21.6171C17.99 21.6171 18.8631 21.3523 19.6058 20.856C20.3485 20.3598 20.9273 19.6544 21.2691 18.8292C21.6109 18.004 21.7004 17.096 21.5261 16.2199C21.3519 15.3439 20.9218 14.5392 20.2902 13.9076C19.6586 13.276 18.8539 12.8459 17.9778 12.6716C17.1018 12.4974 16.1937 12.5868 15.3685 12.9286C14.5433 13.2704 13.838 13.8493 13.3418 14.592C12.8455 15.3346 12.5806 16.2078 12.5806 17.101C12.5819 18.2983 13.0581 19.4463 13.9048 20.293C14.7515 21.1396 15.8994 21.6158 17.0968 21.6171ZM17.0968 13.8752C17.7348 13.8752 18.3585 14.0644 18.8889 14.4188C19.4194 14.7733 19.8329 15.2771 20.077 15.8665C20.3212 16.456 20.3851 17.1046 20.2606 17.7303C20.1361 18.3561 19.8289 18.9308 19.3778 19.382C18.9266 19.8331 18.3518 20.1403 17.7261 20.2648C17.1004 20.3893 16.4518 20.3254 15.8623 20.0812C15.2729 19.8371 14.7691 19.4236 14.4146 18.8931C14.0602 18.3627 13.871 17.739 13.871 17.101C13.871 16.2455 14.2108 15.425 14.8158 14.82C15.4207 14.215 16.2412 13.8752 17.0968 13.8752Z" fill="#2C65C8"/>
</svg>
