<svg width="40" height="46" viewBox="0 0 40 46" fill="none" xmlns="http://www.w3.org/2000/svg">
<rect width="40" height="45.166" rx="6.45161" fill="#4D8EFF"/>
<path d="M27.097 20.0042C27.0977 18.8083 26.7962 17.6315 26.2204 16.5833C25.6446 15.5351 24.8132 14.6493 23.8035 14.0084C22.7938 13.3675 21.6384 12.9921 20.4448 12.9172C19.2512 12.8423 18.058 13.0702 16.9761 13.5799C15.8941 14.0895 14.9585 14.8643 14.2562 15.8323C13.5538 16.8003 13.1075 17.9301 12.9586 19.1168C12.8098 20.3035 12.9633 21.5085 13.4048 22.62C13.8463 23.7315 14.5616 24.7133 15.4841 25.4744V31.6171C15.484 31.7272 15.5121 31.8354 15.5656 31.9315C15.6192 32.0277 15.6964 32.1085 15.79 32.1664C15.8836 32.2242 15.9904 32.2572 16.1003 32.2621C16.2102 32.2671 16.3196 32.2438 16.418 32.1946L20.0002 30.4075L23.5833 32.1986C23.6732 32.2415 23.7716 32.2633 23.8712 32.2623C24.0423 32.2623 24.2064 32.1943 24.3274 32.0733C24.4484 31.9524 24.5164 31.7883 24.5164 31.6171V25.4744C25.3236 24.8096 25.9736 23.9743 26.4198 23.0286C26.866 22.0828 27.0972 21.05 27.097 20.0042ZM14.1938 20.0042C14.1938 18.8558 14.5343 17.7332 15.1723 16.7784C15.8104 15.8235 16.7172 15.0793 17.7782 14.6398C18.8392 14.2003 20.0067 14.0853 21.133 14.3094C22.2594 14.5334 23.294 15.0864 24.106 15.8985C24.9181 16.7105 25.4711 17.7451 25.6951 18.8715C25.9192 19.9978 25.8042 21.1653 25.3647 22.2263C24.9252 23.2873 24.181 24.1941 23.2261 24.8321C22.2713 25.4702 21.1486 25.8107 20.0002 25.8107C18.4608 25.809 16.9849 25.1967 15.8963 24.1081C14.8078 23.0196 14.1955 21.5437 14.1938 20.0042ZM23.226 30.5736L20.2881 29.1051C20.1985 29.0602 20.0997 29.0368 19.9994 29.0368C19.8992 29.0368 19.8004 29.0602 19.7107 29.1051L16.7744 30.5736V26.3244C17.7731 26.8348 18.8787 27.101 20.0002 27.101C21.1218 27.101 22.2274 26.8348 23.226 26.3244V30.5736ZM20.0002 24.5204C20.8934 24.5204 21.7666 24.2555 22.5093 23.7593C23.2519 23.263 23.8308 22.5577 24.1726 21.7325C24.5144 20.9073 24.6038 19.9992 24.4296 19.1232C24.2553 18.2472 23.8252 17.4425 23.1936 16.8109C22.562 16.1793 21.7573 15.7492 20.8813 15.5749C20.0052 15.4006 19.0972 15.4901 18.272 15.8319C17.4468 16.1737 16.7415 16.7525 16.2452 17.4952C15.749 18.2379 15.4841 19.111 15.4841 20.0042C15.4854 21.2016 15.9616 22.3496 16.8083 23.1962C17.6549 24.0429 18.8029 24.5191 20.0002 24.5204ZM20.0002 16.7784C20.6382 16.7784 21.2619 16.9676 21.7924 17.3221C22.3229 17.6765 22.7363 18.1803 22.9805 18.7698C23.2246 19.3592 23.2885 20.0078 23.1641 20.6336C23.0396 21.2593 22.7324 21.8341 22.2812 22.2852C21.8301 22.7364 21.2553 23.0436 20.6296 23.1681C20.0038 23.2925 19.3552 23.2287 18.7658 22.9845C18.1763 22.7404 17.6725 22.3269 17.3181 21.7964C16.9636 21.2659 16.7744 20.6423 16.7744 20.0042C16.7744 19.1487 17.1143 18.3282 17.7192 17.7233C18.3242 17.1183 19.1447 16.7784 20.0002 16.7784Z" fill="#2259B7"/>
</svg>
