<svg width="48" height="48" viewBox="0 0 48 48" fill="none" xmlns="http://www.w3.org/2000/svg">
<rect width="48" height="48" rx="16" fill="#FFEDD5"/>
<path d="M23 16V13H25V16H23ZM23 35V32H25V35H23ZM32 25V23H35V25H32ZM13 25V23H16V25H13ZM30.7 18.7L29.3 17.3L31.05 15.5L32.5 16.95L30.7 18.7ZM16.95 32.5L15.5 31.05L17.3 29.3L18.7 30.7L16.95 32.5ZM31.05 32.5L29.3 30.7L30.7 29.3L32.5 31.05L31.05 32.5ZM17.3 18.7L15.5 16.95L16.95 15.5L18.7 17.3L17.3 18.7ZM24 30C22.3333 30 20.9167 29.4167 19.75 28.25C18.5833 27.0833 18 25.6667 18 24C18 22.3333 18.5833 20.9167 19.75 19.75C20.9167 18.5833 22.3333 18 24 18C25.6667 18 27.0833 18.5833 28.25 19.75C29.4167 20.9167 30 22.3333 30 24C30 25.6667 29.4167 27.0833 28.25 28.25C27.0833 29.4167 25.6667 30 24 30ZM24 28C25.1167 28 26.0625 27.6125 26.8375 26.8375C27.6125 26.0625 28 25.1167 28 24C28 22.8833 27.6125 21.9375 26.8375 21.1625C26.0625 20.3875 25.1167 20 24 20C22.8833 20 21.9375 20.3875 21.1625 21.1625C20.3875 21.9375 20 22.8833 20 24C20 25.1167 20.3875 26.0625 21.1625 26.8375C21.9375 27.6125 22.8833 28 24 28Z" fill="#EA580C"/>
</svg>
