<svg width="50" height="50" viewBox="0 0 50 50" fill="none" xmlns="http://www.w3.org/2000/svg">
<rect width="49.8085" height="49.8075" rx="6.45161" fill="#9AFFB4"/>
<path d="M36.9032 24.9022V24.8962C36.9032 21.3452 35.3572 18.1562 32.9022 15.9632L32.8902 15.9532C32.8599 15.9206 32.826 15.8914 32.7892 15.8662L32.7872 15.8652C30.6067 13.951 27.8028 12.8979 24.9012 12.9032C21.8692 12.9032 19.1012 14.0292 16.9912 15.8872L17.0042 15.8762C16.9788 15.8956 16.9554 15.9174 16.9342 15.9412C15.6658 17.0645 14.6505 18.4454 13.9555 19.9906C13.2606 21.5358 12.9019 23.211 12.9032 24.9052C12.9032 28.4552 14.4472 31.6442 16.9002 33.8382L16.9122 33.8482C16.9441 33.8841 16.9796 33.9166 17.0182 33.9452L17.0202 33.9462C19.2 35.8579 22.0019 36.9095 24.9012 36.9042C27.8141 36.9087 30.6279 35.8473 32.8122 33.9202L32.7992 33.9312C34.0897 32.8093 35.1241 31.4233 35.8325 29.8669C36.5409 28.3106 36.9067 26.6202 36.9052 24.9102V24.9032L36.9032 24.9022ZM32.4412 32.7072C31.8465 32.2267 31.2073 31.8041 30.5322 31.4452L30.4672 31.4132C31.0802 29.6462 31.4492 27.6092 31.4842 25.4902V25.4742H35.7452C35.6019 28.2157 34.4219 30.8003 32.4442 32.7042L32.4412 32.7072ZM25.4752 31.2022C26.7582 31.2712 27.9572 31.5532 29.0632 32.0122L28.9912 31.9862C28.1052 34.0062 26.8582 35.3942 25.4752 35.6992V31.2022ZM25.4752 30.0582V25.4742H30.3432C30.3045 27.3725 29.9753 29.2536 29.3672 31.0522L29.4062 30.9212C28.1649 30.4102 26.8443 30.1186 25.5032 30.0592L25.4762 30.0582H25.4752ZM25.4752 24.3302V19.7462C26.8524 19.6836 28.2082 19.3821 29.4822 18.8552L29.4032 18.8842C29.9582 20.5032 30.2992 22.3692 30.3432 24.3092V24.3302H25.4752ZM25.4752 18.6022V14.1072C26.8582 14.4122 28.1052 15.7942 28.9912 17.8202C27.9572 18.2502 26.7582 18.5312 25.5042 18.6012L25.4752 18.6022ZM28.3292 14.6022C29.5079 14.9945 30.61 15.5872 31.5872 16.3542L31.5642 16.3362C31.1212 16.6842 30.6242 17.0122 30.1002 17.2972L30.0442 17.3252C29.6219 16.3254 29.0396 15.401 28.3202 14.5882L28.3292 14.5992V14.6022ZM24.3292 14.1102V18.6022C23.0957 18.5394 21.8821 18.2654 20.7412 17.7922L20.8132 17.8182C21.7032 15.7982 22.9482 14.4112 24.3312 14.1062L24.3292 14.1102ZM19.7612 17.3222C19.2193 17.0304 18.7028 16.6935 18.2172 16.3152L18.2412 16.3332C19.1899 15.5887 20.2576 15.0099 21.3992 14.6212L21.4752 14.5982C20.7753 15.3895 20.2053 16.2866 19.7862 17.2562L19.7612 17.3222ZM24.3312 19.7452V24.3292H19.4632C19.5072 22.3682 19.8482 20.5022 20.4422 18.7522L20.4032 18.8832C21.6446 19.3918 22.9641 19.683 24.3042 19.7442L24.3312 19.7452ZM24.3312 25.4732V30.0572C22.954 30.1199 21.5982 30.4214 20.3242 30.9482L20.4032 30.9192C19.8482 29.3012 19.5072 27.4342 19.4632 25.4942V25.4732H24.3312ZM24.3312 31.2012V35.6962C22.9482 35.3912 21.7012 34.0092 20.8152 31.9832C21.8492 31.5532 23.0482 31.2732 24.3022 31.2032L24.3312 31.2012ZM21.4812 35.2012C20.3036 34.8084 19.2017 34.2172 18.2232 33.4532L18.2472 33.4712C18.6902 33.1232 19.1872 32.7952 19.7112 32.5102L19.7672 32.4822C20.1864 33.4823 20.7686 34.4058 21.4902 35.2152L21.4812 35.2052V35.2012ZM30.0452 32.4812C30.6252 32.7962 31.1222 33.1232 31.5892 33.4882L31.5652 33.4702C30.6165 34.2148 29.5488 34.7936 28.4072 35.1822L28.3312 35.2052C29.031 34.4143 29.601 33.5175 30.0202 32.5482L30.0452 32.4832V32.4812ZM35.7452 24.3302H31.4842C31.4529 22.2613 31.0959 20.2101 30.4262 18.2522L30.4672 18.3902C31.1735 18.0182 31.8423 17.5788 32.4642 17.0782L32.4402 17.0962C34.4145 18.9925 35.5951 21.5678 35.7432 24.3012L35.7452 24.3302ZM17.3652 17.0972C17.9412 17.5652 18.5882 17.9942 19.2742 18.3592L19.3392 18.3912C18.7262 20.1582 18.3572 22.1952 18.3222 24.3142V24.3302H14.0602C14.2035 21.5888 15.3835 19.0042 17.3612 17.1002L17.3652 17.0972ZM14.0612 25.4742H18.3222C18.3535 27.5432 18.7105 29.5944 19.3802 31.5522L19.3392 31.4142C18.5882 31.8132 17.9422 32.2422 17.3422 32.7262L17.3662 32.7082C15.3919 30.812 14.2113 28.2367 14.0632 25.5032L14.0622 25.4752L14.0612 25.4742Z" fill="#00D134"/>
</svg>
