<svg width="48" height="48" viewBox="0 0 48 48" fill="none" xmlns="http://www.w3.org/2000/svg">
<rect width="48" height="48" rx="16" fill="#E0E7FF"/>
<path d="M24 33C21.5 33 19.375 32.125 17.625 30.375C15.875 28.625 15 26.5 15 24C15 21.5 15.875 19.375 17.625 17.625C19.375 15.875 21.5 15 24 15C24.2333 15 24.4625 15.0083 24.6875 15.025C24.9125 15.0417 25.1333 15.0667 25.35 15.1C24.6667 15.5833 24.1208 16.2125 23.7125 16.9875C23.3042 17.7625 23.1 18.6 23.1 19.5C23.1 21 23.625 22.275 24.675 23.325C25.725 24.375 27 24.9 28.5 24.9C29.4167 24.9 30.2583 24.6958 31.025 24.2875C31.7917 23.8792 32.4167 23.3333 32.9 22.65C32.9333 22.8667 32.9583 23.0875 32.975 23.3125C32.9917 23.5375 33 23.7667 33 24C33 26.5 32.125 28.625 30.375 30.375C28.625 32.125 26.5 33 24 33ZM24 31C25.4667 31 26.7833 30.5958 27.95 29.7875C29.1167 28.9792 29.9667 27.925 30.5 26.625C30.1667 26.7083 29.8333 26.775 29.5 26.825C29.1667 26.875 28.8333 26.9 28.5 26.9C26.45 26.9 24.7042 26.1792 23.2625 24.7375C21.8208 23.2958 21.1 21.55 21.1 19.5C21.1 19.1667 21.125 18.8333 21.175 18.5C21.225 18.1667 21.2917 17.8333 21.375 17.5C20.075 18.0333 19.0208 18.8833 18.2125 20.05C17.4042 21.2167 17 22.5333 17 24C17 25.9333 17.6833 27.5833 19.05 28.95C20.4167 30.3167 22.0667 31 24 31Z" fill="#4F46E5"/>
</svg>
