<svg width="743" height="428" viewBox="0 0 743 428" fill="none" xmlns="http://www.w3.org/2000/svg">
<g clip-path="url(#clip0_871_1491)">
<path opacity="0.1" d="M544.507 326.076C426.039 354.302 273.467 352.301 273.467 352.301H108.355V335.782C175.638 325.941 268.668 319.858 371.502 319.858C429.381 319.752 487.198 321.831 544.507 326.076Z" fill="black"/>
<path opacity="0.1" d="M743.001 373.929C743.001 403.803 576.652 428 371.501 428C166.351 428 0.00146484 403.803 0.00146484 373.929C0.00146484 359.033 41.3829 345.541 108.36 335.782V352.3H273.466C273.466 352.3 426.039 354.301 544.507 326.076C662.509 335.106 743.001 353.139 743.001 373.929Z" fill="black"/>
<path d="M418.949 37.2563H260.88V120.227H418.949V37.2563Z" fill="#090814"/>
<path d="M319.664 95.9327C319.664 95.9327 332.747 119.926 309.848 121.64C295.639 122.801 282.174 125.74 270.597 130.21L313.119 159.345H391.623L440.686 133.638C440.686 133.638 375.268 107.93 388.352 92.5048C401.435 77.0797 319.664 95.9327 319.664 95.9327Z" fill="#ED9DA0"/>
<path d="M339.287 394.143L414.521 407.852L466.851 409.566L463.579 385.573L355.643 368.846L339.287 394.143Z" fill="#ED9DA0"/>
<path d="M435.784 388.999C435.784 388.999 435.783 412.992 442.326 412.992C448.868 412.992 537.182 407.849 563.349 412.992C589.517 418.135 628.767 399.285 609.142 388.999C589.516 378.712 557.505 363.291 537.53 366.718C517.555 370.145 435.782 378.715 435.782 378.715L435.784 388.999Z" fill="#2F2E41"/>
<path d="M195.371 366.722C195.371 366.722 156.119 407.854 182.287 411.282C208.455 414.709 237.893 409.568 241.164 407.854C244.435 406.14 290.228 399.285 296.77 402.711C303.312 406.136 303.311 388.999 303.311 388.999L195.371 366.722Z" fill="#2F2E41"/>
<path d="M228.08 310.164C228.08 310.164 165.931 354.725 211.725 366.721C257.519 378.718 476.669 378.718 493.024 366.721C509.378 354.724 515.921 317.019 493.024 313.591C470.127 310.163 228.08 310.164 228.08 310.164Z" fill="#2F2E41"/>
<path opacity="0.2" d="M228.08 310.164C228.08 310.164 165.931 354.725 211.725 366.721C257.519 378.718 476.669 378.718 493.024 366.721C509.378 354.724 515.921 317.019 493.024 313.591C470.127 310.163 228.08 310.164 228.08 310.164Z" fill="black"/>
<path d="M345.83 107.925C387.38 107.925 421.062 90.2771 421.062 68.5067C421.062 46.7363 387.38 29.0879 345.83 29.0879C304.281 29.0879 270.599 46.7363 270.599 68.5067C270.599 90.2771 304.281 107.925 345.83 107.925Z" fill="#ED9DA0"/>
<path d="M228.08 130.209L293.497 123.354C293.497 123.354 309.852 150.775 362.187 145.634C414.521 140.493 427.604 123.354 427.604 123.354C427.604 123.354 466.856 131.923 470.127 131.923C473.398 131.923 515.92 140.492 515.92 145.634C515.92 150.776 466.857 202.191 466.857 202.191L473.398 294.74L231.349 291.312L247.705 200.478L228.08 130.209Z" fill="#EE5822"/>
<path d="M192.098 174.771C192.098 174.771 172.473 265.606 185.556 272.461C198.639 279.316 250.974 298.169 250.974 298.169V277.602L224.807 251.895L250.975 191.912L192.098 174.771Z" fill="#ED9DA0"/>
<path d="M530.639 172.198C530.639 172.198 519.191 265.603 519.191 269.031C519.191 272.458 489.752 284.456 479.944 284.456C470.135 284.456 463.589 275.887 463.589 275.887L486.486 262.176L470.128 191.907L530.639 172.198Z" fill="#ED9DA0"/>
<path d="M499.566 303.309C499.566 303.309 646.757 260.462 650.027 303.309C653.297 346.156 574.796 363.292 574.796 363.292C574.796 363.292 371.999 395.153 363.816 383.508C355.633 371.863 339.283 353.008 352.368 351.295C365.453 349.582 381.806 346.152 388.348 349.581C394.89 353.01 476.669 323.876 476.669 323.876L499.566 303.309Z" fill="#2F2E41"/>
<path opacity="0.2" d="M568.254 298.167C568.254 298.167 538.816 305.022 529.004 310.162C519.192 315.302 476.664 323.875 476.664 323.875" stroke="black" stroke-width="2" stroke-miterlimit="10"/>
<path d="M247.705 133.636L228.073 130.208C228.073 130.208 156.113 169.627 179.01 179.91C201.906 190.194 214.99 193.622 221.532 197.049C228.074 200.476 260.783 202.192 260.783 202.192L247.705 133.636Z" fill="#EE5822"/>
<path d="M486.483 142.207L515.92 145.635C515.92 145.635 538.817 171.342 545.358 174.77C551.899 178.198 535.542 176.484 525.733 183.339C515.923 190.195 506.101 202.192 486.481 202.192C466.862 202.192 440.689 185.053 440.689 185.053L486.483 142.207Z" fill="#EE5822"/>
<path d="M234.62 318.735C234.62 318.735 110.327 272.461 67.8031 306.738C25.2794 341.015 250.975 387.289 283.684 394.145C316.393 401 345.832 407.856 345.832 407.856C345.832 407.856 375.27 370.151 375.27 363.296C375.27 356.44 352.373 356.44 345.832 356.44C339.291 356.44 309.852 353.013 303.309 347.871C296.767 342.73 234.62 318.735 234.62 318.735Z" fill="#2F2E41"/>
<path opacity="0.2" d="M165.931 306.736C165.931 306.736 198.64 320.447 228.079 323.875C257.518 327.302 267.33 335.872 267.33 335.872" stroke="black" stroke-width="2" stroke-miterlimit="10"/>
<path d="M212.056 242.297L214.67 314.862C214.756 317.259 216.647 319.541 219.93 321.21C223.214 322.88 227.623 323.802 232.198 323.775L489.923 322.258C494.315 322.232 498.525 321.334 501.702 319.744C504.878 318.155 506.786 315.993 507.037 313.695L514.861 242.647C514.997 241.412 514.65 240.175 513.842 239.013C513.033 237.851 511.78 236.788 510.16 235.888C508.539 234.988 506.585 234.272 504.417 233.782C502.25 233.292 499.914 233.04 497.553 233.04H229.391C227.087 233.039 224.805 233.28 222.68 233.747C220.555 234.214 218.629 234.899 217.015 235.76C215.401 236.622 214.131 237.644 213.279 238.766C212.427 239.888 212.01 241.088 212.054 242.295L212.056 242.297Z" fill="#090814"/>
<path d="M206.108 122.875C213.127 114.759 222.561 107.143 227.056 98.5488C232.443 88.2489 230.345 77.3505 229.704 66.6759C228.68 57.2351 230.215 47.766 234.264 38.5509C238.376 29.2921 247.604 20.8736 260.796 14.3475C295.074 -1.68344 328.714 -2.83766 370.57 3.83723C387.071 6.46898 404.648 11.4793 408.74 20.2589C409.357 21.5848 409.632 22.9501 410.324 24.2667C413.751 30.8033 426.514 34.94 431.119 41.2749C437.075 49.4687 427.891 58.3792 426.69 67.1248C425.288 77.3352 434.868 86.9805 444.31 95.9425C449.919 101.27 455.759 106.945 455.201 113.023C454.737 116.349 452.808 119.573 449.566 122.442C443.55 127.642 435.113 131.956 425.044 134.98C414.976 138.004 403.607 139.639 392.003 139.731C384.46 140.048 376.918 139.115 370.442 137.064C360.227 133.379 357.235 125.958 359.363 119.555C361.491 113.153 367.692 107.363 372.553 101.387C374.045 99.5521 375.39 97.6865 376.633 95.8022C391.702 91.3947 403.315 84.3388 409.419 75.8807C415.524 67.4225 415.728 58.1062 409.996 49.5767C404.264 41.0473 392.964 33.8535 378.092 29.2657C363.22 24.6779 345.732 22.9912 328.717 24.5034C311.702 26.0156 296.253 30.6295 285.1 37.5304C273.947 44.4312 267.807 53.175 267.763 62.2177C267.72 71.2605 273.776 80.0205 284.862 86.9508C295.948 93.8811 311.352 98.5358 328.352 100.093C332.017 109.766 330.351 119.785 323.551 128.98C317.367 136.461 309.602 143.556 300.401 150.13C296.638 153.501 291.623 156.442 285.652 158.779C281.717 159.999 277.493 160.945 273.088 161.59C254.612 164.703 264.251 167.208 245.029 165.808C225.808 164.408 206.77 158.333 200.22 148.76C194.478 140.365 199.089 130.991 206.108 122.875Z" fill="#090814"/>
<path d="M336.953 62.3169C381.047 62.3169 416.793 51.7034 416.793 38.6111C416.793 25.5187 381.047 14.9053 336.953 14.9053C292.859 14.9053 257.113 25.5187 257.113 38.6111C257.113 51.7034 292.859 62.3169 336.953 62.3169Z" fill="#090814"/>
</g>
<defs>
<clipPath id="clip0_871_1491">
<rect width="743" height="428" fill="white"/>
</clipPath>
</defs>
</svg>
