<svg width="150" height="48" viewBox="0 0 150 48" fill="none" xmlns="http://www.w3.org/2000/svg">
<path d="M22.7973 4.79952H22.8093H22.7973ZM22.7973 4.79952L16.7979 19.1981L28.7967 26.1526L10.7985 43.1957L16.7979 28.7971L4.7991 21.8378L22.7973 4.79952ZM22.7973 2.20496e-06C21.5663 0.0045942 20.3832 0.477325 19.488 1.32227L1.49703 18.3486C0.955013 18.8625 0.540443 19.4959 0.286312 20.1983C0.0321803 20.9007 -0.0544975 21.6528 0.0331755 22.3946C0.205958 23.8968 1.08187 25.2311 2.38974 25.9894L10.7457 30.8393L6.36374 41.3527C6.06127 42.0824 5.94328 42.8754 6.02022 43.6615C6.09717 44.4476 6.36666 45.2027 6.80488 45.8599C7.24309 46.5171 7.83651 47.0562 8.53265 47.4295C9.22879 47.8027 10.0062 47.9987 10.7961 48C11.9912 48 13.1791 47.5536 14.0958 46.6849L32.094 29.6394C32.6356 29.1257 33.05 28.4927 33.3041 27.7908C33.5582 27.0888 33.6451 26.3373 33.5578 25.5958C33.4715 24.8547 33.2135 24.1439 32.8045 23.5199C32.3954 22.8958 31.8465 22.3758 31.2013 22.001L22.8453 17.1583L27.1385 6.85612C27.4856 6.12421 27.6418 5.31636 27.5925 4.50782C27.5433 3.69928 27.2902 2.91635 26.8569 2.23197C26.4236 1.54758 25.8241 0.98401 25.1142 0.593746C24.4044 0.203483 23.6073 -0.000774167 22.7973 2.20496e-06Z" fill="#EE5822"/>
<path d="M55.6365 19.2678C55.5439 18.4014 55.1537 17.7268 54.4659 17.244C53.7846 16.7612 52.8984 16.5198 51.8071 16.5198C51.0399 16.5198 50.3819 16.6355 49.8329 16.867C49.284 17.0985 48.864 17.4126 48.573 17.8095C48.282 18.2063 48.1332 18.6593 48.1266 19.1686C48.1266 19.5919 48.2225 19.9589 48.4143 20.2698C48.6127 20.5806 48.8805 20.8452 49.2178 21.0634C49.5551 21.2751 49.9288 21.4537 50.3389 21.5992C50.7489 21.7447 51.1623 21.867 51.579 21.9662L53.4837 22.4424C54.2509 22.621 54.9884 22.8624 55.696 23.1666C56.4103 23.4709 57.0486 23.8545 57.6107 24.3174C58.1795 24.7804 58.6292 25.3393 58.9599 25.994C59.2906 26.6488 59.456 27.416 59.456 28.2956C59.456 29.4861 59.1517 30.5344 58.5433 31.4405C57.9348 32.3399 57.0552 33.0443 55.9044 33.5536C54.7602 34.0562 53.3746 34.3075 51.7476 34.3075C50.1669 34.3075 48.7945 34.0628 47.6305 33.5734C46.4731 33.084 45.567 32.3697 44.9123 31.4305C44.2641 30.4914 43.9136 29.3472 43.8607 27.998H47.4817C47.5346 28.7057 47.7529 29.2943 48.1365 29.7639C48.5201 30.2335 49.0194 30.584 49.6345 30.8155C50.2562 31.0469 50.9506 31.1627 51.7178 31.1627C52.5181 31.1627 53.2192 31.0436 53.821 30.8055C54.4295 30.5608 54.9057 30.2235 55.2496 29.7936C55.5935 29.3571 55.7688 28.8479 55.7754 28.2658C55.7688 27.7367 55.6134 27.3002 55.3091 26.9563C55.0049 26.6058 54.5783 26.3148 54.0294 26.0833C53.487 25.8452 52.8521 25.6336 52.1246 25.4484L49.8131 24.8531C48.1398 24.4232 46.817 23.7718 45.8448 22.8988C44.8792 22.0191 44.3964 20.8518 44.3964 19.3968C44.3964 18.1997 44.7205 17.1514 45.3686 16.2519C46.0234 15.3524 46.9129 14.6547 48.0373 14.1586C49.1616 13.656 50.4348 13.4047 51.8567 13.4047C53.2985 13.4047 54.5618 13.656 55.6464 14.1586C56.7377 14.6547 57.5942 15.3458 58.2159 16.2321C58.8376 17.1117 59.1583 18.1236 59.1782 19.2678H55.6365ZM65.8523 29.2182L65.8424 24.8829H66.4178L71.894 18.7618H76.0905L69.3543 26.2619H68.6103L65.8523 29.2182ZM62.5785 34V13.6825H66.1698V34H62.5785ZM72.142 34L67.1817 27.0654L69.6023 24.5357L76.4377 34H72.142ZM78.4838 34V18.7618H82.0751V34H78.4838ZM80.2894 16.5991C79.7206 16.5991 79.2312 16.4106 78.8211 16.0337C78.4111 15.6501 78.206 15.1904 78.206 14.6547C78.206 14.1124 78.4111 13.6527 78.8211 13.2757C79.2312 12.8921 79.7206 12.7003 80.2894 12.7003C80.8648 12.7003 81.3542 12.8921 81.7576 13.2757C82.1677 13.6527 82.3727 14.1124 82.3727 14.6547C82.3727 15.1904 82.1677 15.6501 81.7576 16.0337C81.3542 16.4106 80.8648 16.5991 80.2894 16.5991ZM89.3594 13.6825V34H85.7681V13.6825H89.3594ZM96.6436 13.6825V34H93.0523V13.6825H96.6436ZM100.495 34V13.6825H104.087V21.2817H104.235C104.421 20.9113 104.682 20.5178 105.019 20.1011C105.356 19.6779 105.813 19.3174 106.388 19.0198C106.964 18.7155 107.698 18.5634 108.591 18.5634C109.768 18.5634 110.829 18.8644 111.775 19.4662C112.728 20.0615 113.481 20.9444 114.037 22.115C114.599 23.2791 114.88 24.7076 114.88 26.4008C114.88 28.074 114.606 29.496 114.057 30.6667C113.508 31.8373 112.761 32.7302 111.815 33.3452C110.869 33.9603 109.798 34.2679 108.601 34.2679C107.727 34.2679 107.003 34.1224 106.428 33.8313C105.852 33.5403 105.39 33.1898 105.039 32.7798C104.695 32.3631 104.427 31.9696 104.235 31.5992H104.027V34H100.495ZM104.017 26.3809C104.017 27.3664 104.156 28.2295 104.434 28.9702C104.718 29.711 105.125 30.2897 105.654 30.7063C106.19 31.1164 106.838 31.3214 107.599 31.3214C108.392 31.3214 109.057 31.1098 109.593 30.6865C110.128 30.2566 110.532 29.6713 110.803 28.9305C111.081 28.1832 111.22 27.3333 111.22 26.3809C111.22 25.4352 111.084 24.5952 110.813 23.8611C110.542 23.1269 110.138 22.5515 109.603 22.1349C109.067 21.7182 108.399 21.5099 107.599 21.5099C106.831 21.5099 106.18 21.7116 105.644 22.115C105.108 22.5185 104.702 23.084 104.424 23.8115C104.153 24.539 104.017 25.3955 104.017 26.3809ZM124.679 34.2976C123.152 34.2976 121.832 33.9802 120.721 33.3452C119.617 32.7037 118.767 31.7976 118.171 30.627C117.576 29.4497 117.279 28.0641 117.279 26.4702C117.279 24.9027 117.576 23.5271 118.171 22.3432C118.773 21.1527 119.613 20.2268 120.691 19.5654C121.769 18.8974 123.036 18.5634 124.491 18.5634C125.43 18.5634 126.316 18.7155 127.15 19.0198C127.99 19.3174 128.73 19.7804 129.372 20.4087C130.02 21.037 130.529 21.8373 130.9 22.8095C131.27 23.7751 131.455 24.9259 131.455 26.2619V27.3631H118.965V24.9424H128.013C128.006 24.2546 127.857 23.6428 127.566 23.1071C127.275 22.5648 126.869 22.1382 126.346 21.8273C125.83 21.5165 125.228 21.3611 124.541 21.3611C123.806 21.3611 123.162 21.5396 122.606 21.8968C122.05 22.2473 121.617 22.7103 121.306 23.2857C121.002 23.8545 120.847 24.4795 120.84 25.1607V27.2738C120.84 28.16 121.002 28.9206 121.326 29.5555C121.65 30.1838 122.103 30.6667 122.685 31.004C123.267 31.3346 123.949 31.5 124.729 31.5C125.252 31.5 125.724 31.4272 126.148 31.2817C126.571 31.1296 126.938 30.9081 127.249 30.617C127.56 30.326 127.795 29.9656 127.953 29.5357L131.306 29.9127C131.095 30.7989 130.691 31.5727 130.096 32.2341C129.508 32.8889 128.754 33.3981 127.834 33.7619C126.915 34.119 125.863 34.2976 124.679 34.2976ZM141.24 34.2976C139.712 34.2976 138.392 33.9802 137.281 33.3452C136.177 32.7037 135.327 31.7976 134.732 30.627C134.136 29.4497 133.839 28.0641 133.839 26.4702C133.839 24.9027 134.136 23.5271 134.732 22.3432C135.333 21.1527 136.173 20.2268 137.251 19.5654C138.329 18.8974 139.596 18.5634 141.051 18.5634C141.99 18.5634 142.876 18.7155 143.71 19.0198C144.55 19.3174 145.29 19.7804 145.932 20.4087C146.58 21.037 147.089 21.8373 147.46 22.8095C147.83 23.7751 148.015 24.9259 148.015 26.2619V27.3631H135.525V24.9424H144.573C144.566 24.2546 144.417 23.6428 144.126 23.1071C143.835 22.5648 143.429 22.1382 142.906 21.8273C142.39 21.5165 141.788 21.3611 141.101 21.3611C140.367 21.3611 139.722 21.5396 139.166 21.8968C138.611 22.2473 138.177 22.7103 137.867 23.2857C137.562 23.8545 137.407 24.4795 137.4 25.1607V27.2738C137.4 28.16 137.562 28.9206 137.886 29.5555C138.21 30.1838 138.663 30.6667 139.245 31.004C139.827 31.3346 140.509 31.5 141.289 31.5C141.812 31.5 142.285 31.4272 142.708 31.2817C143.131 31.1296 143.498 30.9081 143.809 30.617C144.12 30.326 144.355 29.9656 144.513 29.5357L147.867 29.9127C147.655 30.7989 147.251 31.5727 146.656 32.2341C146.068 32.8889 145.314 33.3981 144.394 33.7619C143.475 34.119 142.423 34.2976 141.24 34.2976Z" fill="#EE5822"/>
</svg>
