<svg width="79" height="20" viewBox="0 0 79 20" fill="none" xmlns="http://www.w3.org/2000/svg">
<path d="M9.49982 2H9.50482H9.49982ZM9.49982 2L6.99982 8L11.9998 10.898L4.49982 18L6.99982 12L1.99982 9.1L9.49982 2ZM9.49982 9.18826e-07C8.98687 0.00191444 8.49386 0.198905 8.12082 0.551001L0.623825 7.646C0.397962 7.86018 0.225207 8.12412 0.119309 8.41682C0.0134098 8.70951 -0.0227096 9.02289 0.0138245 9.332C0.0858245 9.958 0.450824 10.514 0.995824 10.83L4.47782 12.851L2.65182 17.232C2.52578 17.5361 2.47662 17.8665 2.50868 18.1941C2.54074 18.5217 2.65304 18.8363 2.83565 19.1102C3.01826 19.3841 3.26554 19.6087 3.55563 19.7642C3.84572 19.9198 4.16967 20.0015 4.49882 20.002C4.99682 20.002 5.49182 19.816 5.87382 19.454L13.3738 12.351C13.5995 12.1369 13.7722 11.8732 13.8781 11.5806C13.984 11.2881 14.0202 10.975 13.9838 10.666C13.9478 10.3572 13.8404 10.061 13.6699 9.80092C13.4994 9.54089 13.2707 9.32418 13.0018 9.168L9.51982 7.15L11.3088 2.857C11.4535 2.55201 11.5186 2.21537 11.498 1.87845C11.4775 1.54152 11.3721 1.21527 11.1915 0.930079C11.0109 0.64489 10.7611 0.410045 10.4653 0.247419C10.1695 0.0847931 9.83737 -0.000322602 9.49982 9.18826e-07Z" fill="#EE5822"/>
<path d="M23.7355 7.2112C23.69 6.75287 23.495 6.39681 23.1503 6.14302C22.8056 5.88923 22.3378 5.76234 21.7468 5.76234C21.3453 5.76234 21.0063 5.81916 20.7298 5.93279C20.4533 6.04264 20.2412 6.19605 20.0934 6.39302C19.9495 6.58999 19.8775 6.81348 19.8775 7.06348C19.87 7.27181 19.9135 7.45363 20.0082 7.60893C20.1067 7.76423 20.2412 7.8987 20.4116 8.01234C20.5821 8.12219 20.779 8.21878 21.0025 8.30211C21.226 8.38166 21.4647 8.44984 21.7184 8.50666L22.7639 8.75666C23.2715 8.87029 23.7374 9.02181 24.1616 9.2112C24.5859 9.4006 24.9533 9.63355 25.2639 9.91007C25.5745 10.1866 25.815 10.5123 25.9855 10.8873C26.1597 11.2623 26.2487 11.6923 26.2525 12.1771C26.2487 12.8892 26.0669 13.5067 25.7071 14.0294C25.351 14.5483 24.8359 14.9517 24.1616 15.2396C23.4912 15.5237 22.6825 15.6657 21.7355 15.6657C20.7961 15.6657 19.9779 15.5218 19.2809 15.2339C18.5878 14.9461 18.0461 14.5199 17.6559 13.9555C17.2696 13.3873 17.0669 12.6847 17.048 11.8476H19.4287C19.4552 12.2377 19.5669 12.5635 19.7639 12.8248C19.9647 13.0824 20.2317 13.2775 20.565 13.4101C20.9022 13.5389 21.2828 13.6032 21.7071 13.6032C22.1237 13.6032 22.4855 13.5426 22.7923 13.4214C23.1029 13.3002 23.3434 13.1317 23.5139 12.9157C23.6843 12.6998 23.7696 12.4517 23.7696 12.1714C23.7696 11.9101 23.6919 11.6904 23.5366 11.5123C23.3851 11.3343 23.1616 11.1828 22.8662 11.0578C22.5745 10.9328 22.2165 10.8192 21.7923 10.7169L20.5253 10.3987C19.5442 10.1601 18.7696 9.78696 18.2014 9.27939C17.6332 8.77181 17.351 8.0881 17.3548 7.22825C17.351 6.5237 17.5385 5.90817 17.9173 5.38166C18.2999 4.85514 18.8245 4.44416 19.4912 4.1487C20.1578 3.85325 20.9154 3.70552 21.7639 3.70552C22.6275 3.70552 23.3813 3.85325 24.0253 4.1487C24.673 4.44416 25.1768 4.85514 25.5366 5.38166C25.8965 5.90817 26.0821 6.51802 26.0934 7.2112H23.7355ZM30.0551 12.9896L30.0608 10.0862H30.413L33.2085 6.7737H35.9869L32.2312 11.1601H31.6574L30.0551 12.9896ZM27.8619 15.501V3.86461H30.2824V15.501H27.8619ZM33.3165 15.501L30.7483 11.6998L32.3619 9.98961L36.1517 15.501H33.3165ZM37.1744 15.501V6.7737H39.5949V15.501H37.1744ZM38.3903 5.6487C38.0305 5.6487 37.7218 5.52939 37.4642 5.29075C37.2104 5.04832 37.0835 4.75855 37.0835 4.42143C37.0835 4.0881 37.2104 3.80211 37.4642 3.56348C37.7218 3.32105 38.0305 3.19984 38.3903 3.19984C38.7502 3.19984 39.057 3.32105 39.3108 3.56348C39.5683 3.80211 39.6971 4.0881 39.6971 4.42143C39.6971 4.75855 39.5683 5.04832 39.3108 5.29075C39.057 5.52939 38.7502 5.6487 38.3903 5.6487ZM43.9542 3.86461V15.501H41.5338V3.86461H43.9542ZM48.3136 3.86461V15.501H45.8932V3.86461H48.3136ZM50.298 15.501V3.86461H52.7184V8.23961H52.7923C52.8984 8.00476 53.0518 7.76613 53.2525 7.5237C53.4571 7.27749 53.7222 7.07295 54.048 6.91007C54.3775 6.7434 54.7866 6.66007 55.2753 6.66007C55.9116 6.66007 56.4987 6.82673 57.0366 7.16007C57.5745 7.48961 58.0044 7.98772 58.3264 8.65439C58.6484 9.31726 58.8093 10.1487 58.8093 11.1487C58.8093 12.1222 58.6522 12.9442 58.3378 13.6146C58.0272 14.2813 57.6029 14.787 57.065 15.1317C56.5309 15.4726 55.9325 15.643 55.2696 15.643C54.7999 15.643 54.4003 15.5654 54.0707 15.4101C53.745 15.2548 53.4779 15.0597 53.2696 14.8248C53.0612 14.5862 52.9022 14.3457 52.7923 14.1032H52.6843V15.501H50.298ZM52.6673 11.1373C52.6673 11.6563 52.7393 12.1089 52.8832 12.4953C53.0272 12.8817 53.2355 13.1828 53.5082 13.3987C53.7809 13.6108 54.1124 13.7169 54.5025 13.7169C54.8965 13.7169 55.2298 13.6089 55.5025 13.393C55.7753 13.1733 55.9817 12.8703 56.1218 12.4839C56.2658 12.0938 56.3378 11.6449 56.3378 11.1373C56.3378 10.6336 56.2677 10.1904 56.1275 9.80779C55.9874 9.42522 55.7809 9.12598 55.5082 8.91007C55.2355 8.69416 54.9003 8.5862 54.5025 8.5862C54.1086 8.5862 53.7753 8.69037 53.5025 8.8987C53.2336 9.10704 53.0272 9.40249 52.8832 9.78507C52.7393 10.1676 52.6673 10.6184 52.6673 11.1373ZM64.4017 15.6714C63.504 15.6714 62.7312 15.4896 62.0835 15.126C61.4396 14.7586 60.9433 14.2396 60.5949 13.5692C60.2464 12.8949 60.0721 12.0976 60.0721 11.1771C60.0721 10.2794 60.2464 9.49151 60.5949 8.81348C60.9433 8.13545 61.4339 7.60704 62.0665 7.22825C62.7028 6.84946 63.449 6.66007 64.3051 6.66007C64.8808 6.66007 65.4168 6.75287 65.913 6.93848C66.413 7.12029 66.8486 7.39492 67.2199 7.76234C67.5949 8.12976 67.8865 8.59189 68.0949 9.1487C68.3032 9.70173 68.4074 10.3495 68.4074 11.0919V11.7567H61.038V10.2567H66.129C66.129 9.90817 66.0532 9.59946 65.9017 9.33052C65.7502 9.06158 65.5399 8.85136 65.271 8.69984C65.0058 8.54454 64.6971 8.46689 64.3449 8.46689C63.9774 8.46689 63.6517 8.55211 63.3676 8.72257C63.0873 8.88923 62.8676 9.11461 62.7085 9.3987C62.5494 9.67901 62.468 9.99151 62.4642 10.3362V11.7623C62.4642 12.1942 62.5437 12.5673 62.7028 12.8817C62.8657 13.1961 63.0949 13.4385 63.3903 13.6089C63.6858 13.7794 64.0361 13.8646 64.4415 13.8646C64.7104 13.8646 64.9566 13.8267 65.1801 13.751C65.4036 13.6752 65.5949 13.5616 65.754 13.4101C65.913 13.2586 66.0343 13.0729 66.1176 12.8532L68.3562 13.001C68.2426 13.5389 68.0096 14.0086 67.6574 14.4101C67.3089 14.8078 66.8581 15.1184 66.3051 15.3419C65.7558 15.5616 65.1214 15.6714 64.4017 15.6714ZM73.9642 15.6714C73.0665 15.6714 72.2937 15.4896 71.646 15.126C71.0021 14.7586 70.5058 14.2396 70.1574 13.5692C69.8089 12.8949 69.6346 12.0976 69.6346 11.1771C69.6346 10.2794 69.8089 9.49151 70.1574 8.81348C70.5058 8.13545 70.9964 7.60704 71.629 7.22825C72.2653 6.84946 73.0115 6.66007 73.8676 6.66007C74.4433 6.66007 74.9793 6.75287 75.4755 6.93848C75.9755 7.12029 76.4111 7.39492 76.7824 7.76234C77.1574 8.12976 77.449 8.59189 77.6574 9.1487C77.8657 9.70173 77.9699 10.3495 77.9699 11.0919V11.7567H70.6005V10.2567H75.6915C75.6915 9.90817 75.6157 9.59946 75.4642 9.33052C75.3127 9.06158 75.1024 8.85136 74.8335 8.69984C74.5683 8.54454 74.2596 8.46689 73.9074 8.46689C73.5399 8.46689 73.2142 8.55211 72.9301 8.72257C72.6498 8.88923 72.4301 9.11461 72.271 9.3987C72.1119 9.67901 72.0305 9.99151 72.0267 10.3362V11.7623C72.0267 12.1942 72.1062 12.5673 72.2653 12.8817C72.4282 13.1961 72.6574 13.4385 72.9528 13.6089C73.2483 13.7794 73.5986 13.8646 74.004 13.8646C74.2729 13.8646 74.5191 13.8267 74.7426 13.751C74.9661 13.6752 75.1574 13.5616 75.3165 13.4101C75.4755 13.2586 75.5968 13.0729 75.6801 12.8532L77.9187 13.001C77.8051 13.5389 77.5721 14.0086 77.2199 14.4101C76.8714 14.8078 76.4206 15.1184 75.8676 15.3419C75.3183 15.5616 74.6839 15.6714 73.9642 15.6714Z" fill="#EE5822"/>
</svg>
