<svg width="34" height="36" viewBox="0 0 34 36" fill="none" xmlns="http://www.w3.org/2000/svg">
<rect width="33.6882" height="35.0116" rx="5" fill="#FF91A5"/>
<path d="M16.8362 25.0116C15.6474 25.0116 14.6139 24.1641 14.3679 23.0155H10.7076C10.5672 23.0149 10.4302 22.9729 10.3136 22.8947C10.1971 22.8165 10.1062 22.7056 10.0524 22.576C9.94257 22.2974 10.0086 21.9902 10.2201 21.7911C10.2189 21.7911 10.4338 21.5391 10.6573 21.0051C10.8786 20.4696 11.1422 19.5363 11.1422 18.1368C11.1422 16.4774 11.5078 14.1996 13.2497 12.7724C13.7139 12.3885 14.2453 12.0941 14.8168 11.9039C14.8419 11.5757 14.9439 11.0729 15.3013 10.6525C15.5589 10.354 16.0359 10 16.8523 10C17.6938 10 18.1663 10.3555 18.4146 10.6536C18.6846 10.972 18.8432 11.383 18.8867 11.8769C19.4612 12.0732 19.9939 12.3751 20.4576 12.7671C21.4108 13.5745 22.5463 15.1645 22.5463 18.1536C22.5463 19.5891 22.8054 20.521 23.0229 21.0501C23.2224 21.5455 23.4234 21.7551 23.4459 21.7773C23.6728 21.9925 23.7411 22.2797 23.6477 22.549C23.6016 22.669 23.5244 22.7745 23.4241 22.8548C23.3237 22.9351 23.2038 22.9872 23.0766 23.0057C23.0507 23.0155 23.0034 23.0155 22.9723 23.0155H19.3026C19.0562 24.1641 18.0234 25.0116 16.8362 25.0116ZM14.7531 23.0151C14.9916 23.953 15.8514 24.6362 16.8362 24.6362C17.8194 24.6362 18.6789 23.953 18.9186 23.0151H14.7531ZM19.1473 22.6401H22.9734C22.9821 22.6401 22.9914 22.6409 23.0001 22.6394C23.1471 22.6169 23.2513 22.5344 23.2971 22.4181C23.3181 22.3582 23.3211 22.2935 23.3058 22.2319C23.2906 22.1703 23.2577 22.1144 23.2112 22.0712L23.1827 22.0431C23.1362 21.9966 22.8988 21.7424 22.6764 21.1908C22.4466 20.632 22.1717 19.6502 22.1717 18.1529C22.1717 15.307 21.1082 13.8085 20.2157 13.0525C19.7579 12.6645 19.2266 12.3728 18.6534 12.1949C18.6164 12.1836 18.5838 12.1612 18.56 12.1306C18.5362 12.1001 18.5225 12.0629 18.5207 12.0243C18.4989 11.5566 18.3669 11.1764 18.1273 10.894C17.9293 10.6559 17.5483 10.3739 16.8519 10.3739C16.1777 10.3739 15.7911 10.6574 15.5856 10.8955C15.2499 11.2904 15.1903 11.7865 15.1843 12.0467C15.1835 12.0865 15.17 12.125 15.1459 12.1566C15.1218 12.1882 15.0882 12.2113 15.0501 12.2226C14.6616 12.3377 14.0751 12.5763 13.4874 13.0611C11.8588 14.3958 11.5168 16.5573 11.5168 18.1356C11.5168 19.597 11.2374 20.5806 11.0031 21.148C10.7477 21.7574 10.4983 22.0398 10.4878 22.0514C10.4354 22.0984 10.3988 22.1606 10.3831 22.2293C10.3674 22.298 10.3733 22.3698 10.4001 22.435C10.4255 22.4954 10.4682 22.5469 10.5228 22.5832C10.5773 22.6194 10.6413 22.6389 10.7068 22.639H19.1473V22.6401Z" fill="#C61233"/>
</svg>
