<svg width="25" height="25" viewBox="0 0 25 25" fill="none" xmlns="http://www.w3.org/2000/svg">
<path d="M17.892 9.02449C19.4997 10.1778 21.4691 10.8564 23.5962 10.8564V6.74859C23.1937 6.74868 22.7921 6.70655 22.3983 6.62281V9.85622C20.2714 9.85622 18.3022 9.17764 16.6941 8.02442V16.4072C16.6941 20.6007 13.3067 23.9999 9.12834 23.9999C7.5693 23.9999 6.12024 23.5269 4.9165 22.7157C6.29037 24.1255 8.20633 25 10.326 25C14.5046 25 17.8922 21.6008 17.8922 17.4071V9.02449H17.892ZM19.3698 4.88024C18.5482 3.97944 18.0087 2.81533 17.892 1.52835V1H16.7568C17.0426 2.63575 18.0172 4.03324 19.3698 4.88024ZM7.5593 19.4978C7.10027 18.8937 6.8522 18.1548 6.85332 17.3951C6.85332 15.4771 8.4027 13.922 10.3142 13.922C10.6705 13.922 11.0246 13.9767 11.3641 14.0848V9.88522C10.9673 9.83065 10.5669 9.80748 10.1666 9.81598V13.0847C9.82689 12.9766 9.47262 12.9217 9.11629 12.9221C7.20477 12.9221 5.65548 14.477 5.65548 16.3952C5.65548 17.7515 6.42991 18.9257 7.5593 19.4978Z" fill="#FF004F"/>
<path d="M16.6942 8.02433C18.3023 9.17755 20.2715 9.85613 22.3984 9.85613V6.62273C21.2111 6.36894 20.1601 5.74629 19.3699 4.88024C18.0172 4.03315 17.0426 2.63566 16.7569 1H13.775V17.4069C13.7683 19.3196 12.2215 20.8684 10.3141 20.8684C9.19012 20.8684 8.19155 20.3307 7.55913 19.4978C6.42982 18.9257 5.65539 17.7514 5.65539 16.3953C5.65539 14.4772 7.20468 12.9221 9.1162 12.9221C9.48244 12.9221 9.83544 12.9794 10.1666 13.0848V9.81607C6.06162 9.90118 2.76025 13.2672 2.76025 17.407C2.76025 19.4736 3.58237 21.347 4.91667 22.7158C6.12041 23.5269 7.56947 24 9.12851 24C13.3069 24 16.6943 20.6006 16.6943 16.4072V8.02433H16.6942Z" fill="black"/>
<path d="M22.3985 6.62271V5.74842C21.3279 5.75005 20.2783 5.44916 19.37 4.88014C20.174 5.76361 21.2329 6.37278 22.3985 6.62271ZM16.757 0.999983C16.7297 0.843658 16.7088 0.686303 16.6943 0.528348V0H12.5771V16.4071C12.5705 18.3195 11.0239 19.8683 9.11629 19.8683C8.55625 19.8683 8.02748 19.7349 7.55922 19.4978C8.19163 20.3307 9.1902 20.8683 10.3142 20.8683C12.2215 20.8683 13.7684 19.3197 13.7751 17.407V0.999983H16.757ZM10.1668 9.81605V8.8853C9.82279 8.83811 9.47595 8.81444 9.12868 8.81461C4.94991 8.81452 1.5625 12.2139 1.5625 16.4071C1.5625 19.036 2.89381 21.3528 4.91684 22.7156C3.58254 21.3469 2.76042 19.4734 2.76042 17.4069C2.76042 13.2672 6.0617 9.90116 10.1668 9.81605Z" fill="#00F2EA"/>
</svg>
