<svg width="38" height="46" viewBox="0 0 38 46" fill="none" xmlns="http://www.w3.org/2000/svg">
<rect width="37.8064" height="45.8064" rx="6.45161" fill="#71A9FE"/>
<path d="M15.0282 12.9032C14.4646 12.9032 13.9241 13.1271 13.5256 13.5256C13.1271 13.9241 12.9032 14.4646 12.9032 15.0282V30.7782C12.9032 31.3418 13.1271 31.8823 13.5256 32.2808C13.9241 32.6793 14.4646 32.9032 15.0282 32.9032H22.7782C23.3418 32.9032 23.8823 32.6793 24.2808 32.2808C24.6793 31.8823 24.9032 31.3418 24.9032 30.7782V15.0282C24.9032 14.4646 24.6793 13.9241 24.2808 13.5256C23.8823 13.1271 23.3418 12.9032 22.7782 12.9032H15.0282ZM14.1532 15.0282C14.1532 14.5452 14.5452 14.1532 15.0282 14.1532H22.7782C23.2617 14.1532 23.6532 14.5452 23.6532 15.0282V30.7782C23.6532 31.0103 23.561 31.2328 23.3969 31.3969C23.2328 31.561 23.0103 31.6532 22.7782 31.6532H15.0282C14.7961 31.6532 14.5736 31.561 14.4095 31.3969C14.2454 31.2328 14.1532 31.0103 14.1532 30.7782V15.0282ZM17.5282 28.6532C17.3624 28.6532 17.2035 28.719 17.0863 28.8363C16.969 28.9535 16.9032 29.1124 16.9032 29.2782C16.9032 29.444 16.969 29.6029 17.0863 29.7201C17.2035 29.8374 17.3624 29.9032 17.5282 29.9032H20.2782C20.444 29.9032 20.6029 29.8374 20.7201 29.7201C20.8374 29.6029 20.9032 29.444 20.9032 29.2782C20.9032 29.1124 20.8374 28.9535 20.7201 28.8363C20.6029 28.719 20.444 28.6532 20.2782 28.6532H17.5282Z" fill="#3B78D4"/>
</svg>
