<svg width="35" height="39" viewBox="0 0 35 39" fill="none" xmlns="http://www.w3.org/2000/svg">
<rect width="34.3306" height="38.0564" rx="5.32258" fill="#D2B0FF"/>
<path d="M12.1504 27.4111C11.7213 27.4111 11.3633 27.2677 11.0764 26.9808C10.7895 26.6939 10.6458 26.3359 10.6451 25.9069V12.1493C10.6451 11.7208 10.7889 11.3632 11.0764 11.0763C11.3639 10.7894 11.7219 10.6456 12.1504 10.645H22.1812C22.6096 10.645 22.9676 10.7888 23.2551 11.0763C23.5426 11.3638 23.6861 11.7218 23.6855 12.1502V25.9069C23.6855 26.3353 23.542 26.6933 23.2551 26.9808C22.9682 27.2683 22.6099 27.4118 22.1802 27.4111H12.1504ZM12.1504 26.4797H22.1812C22.324 26.4797 22.4553 26.4201 22.5752 26.3009C22.695 26.1816 22.7546 26.05 22.754 25.9059V12.1502C22.754 12.0068 22.6944 11.8752 22.5752 11.7553C22.4559 11.6355 22.3243 11.5759 22.1802 11.5765H20.8911V16.6193C20.8911 16.7696 20.8284 16.8814 20.703 16.9547C20.5775 17.0279 20.4493 17.0242 20.3183 16.9435L19.4092 16.4051C19.2781 16.3244 19.149 16.284 19.0217 16.284C18.8944 16.284 18.7652 16.3244 18.6342 16.4051L17.726 16.9435C17.5944 17.0242 17.468 17.0279 17.3469 16.9547C17.2258 16.8814 17.1653 16.7696 17.1653 16.6193V11.5765H12.1504C12.0069 11.5765 11.8753 11.6361 11.7554 11.7553C11.6356 11.8745 11.576 12.0059 11.5766 12.1493V25.9069C11.5766 26.0497 11.6362 26.181 11.7554 26.3009C11.8747 26.4207 12.006 26.4803 12.1494 26.4797M17.1653 16.637V16.6193C17.1653 16.7696 17.2258 16.8814 17.3469 16.9547C17.468 17.0279 17.5944 17.0242 17.726 16.9435L18.6342 16.4051C18.7652 16.3244 18.8944 16.284 19.0217 16.284C19.149 16.284 19.2781 16.3244 19.4092 16.4051L20.3173 16.9435C20.449 17.0242 20.5775 17.0279 20.703 16.9547C20.8284 16.8814 20.8911 16.7696 20.8911 16.6193V16.637C20.8911 16.7755 20.8284 16.8814 20.703 16.9547C20.5775 17.0279 20.449 17.0301 20.3173 16.9612L19.4092 16.4051C19.2781 16.3244 19.149 16.284 19.0217 16.284C18.8944 16.284 18.7652 16.3244 18.6342 16.4051L17.726 16.9612C17.5944 17.0301 17.468 17.0279 17.3469 16.9547C17.2258 16.8814 17.1653 16.7755 17.1653 16.637Z" fill="#8A38F5"/>
</svg>
