<svg width="16" height="16" viewBox="0 0 16 16" fill="none" xmlns="http://www.w3.org/2000/svg">
<path fill-rule="evenodd" clip-rule="evenodd" d="M7.99961 14.4001C11.5319 14.4001 14.3996 11.5324 14.3996 8.0001C14.3996 4.46784 11.5319 1.6001 7.99961 1.6001C4.46735 1.6001 1.59961 4.46784 1.59961 8.0001C1.59961 11.5324 4.46735 14.4001 7.99961 14.4001ZM7.64361 5.7345C7.39812 5.57071 7.0824 5.55538 6.8222 5.6946C6.56199 5.83382 6.39957 6.10499 6.39961 6.4001V9.6001C6.39957 9.89521 6.56199 10.1664 6.8222 10.3056C7.0824 10.4448 7.39812 10.4295 7.64361 10.2657L10.0436 8.6657C10.2661 8.51732 10.3998 8.26755 10.3998 8.0001C10.3998 7.73264 10.2661 7.48288 10.0436 7.3345L7.64361 5.7345Z" fill="#F17447"/>
</svg>
