<svg width="48" height="48" viewBox="0 0 48 48" fill="none" xmlns="http://www.w3.org/2000/svg">
<rect width="48" height="48" rx="24" fill="#EC5B13" fill-opacity="0.1"/>
<path d="M21 15.5V13.5H27V15.5H21ZM23 26.5H25V20.5H23V26.5ZM24 34.5C22.7667 34.5 21.6042 34.2625 20.5125 33.7875C19.4208 33.3125 18.4667 32.6667 17.65 31.85C16.8333 31.0333 16.1875 30.0792 15.7125 28.9875C15.2375 27.8958 15 26.7333 15 25.5C15 24.2667 15.2375 23.1042 15.7125 22.0125C16.1875 20.9208 16.8333 19.9667 17.65 19.15C18.4667 18.3333 19.4208 17.6875 20.5125 17.2125C21.6042 16.7375 22.7667 16.5 24 16.5C25.0333 16.5 26.025 16.6667 26.975 17C27.925 17.3333 28.8167 17.8167 29.65 18.45L31.05 17.05L32.45 18.45L31.05 19.85C31.6833 20.6833 32.1667 21.575 32.5 22.525C32.8333 23.475 33 24.4667 33 25.5C33 26.7333 32.7625 27.8958 32.2875 28.9875C31.8125 30.0792 31.1667 31.0333 30.35 31.85C29.5333 32.6667 28.5792 33.3125 27.4875 33.7875C26.3958 34.2625 25.2333 34.5 24 34.5ZM24 32.5C25.9333 32.5 27.5833 31.8167 28.95 30.45C30.3167 29.0833 31 27.4333 31 25.5C31 23.5667 30.3167 21.9167 28.95 20.55C27.5833 19.1833 25.9333 18.5 24 18.5C22.0667 18.5 20.4167 19.1833 19.05 20.55C17.6833 21.9167 17 23.5667 17 25.5C17 27.4333 17.6833 29.0833 19.05 30.45C20.4167 31.8167 22.0667 32.5 24 32.5Z" fill="#EC5B13"/>
</svg>
