<svg width="34" height="48" viewBox="0 0 34 48" fill="none" xmlns="http://www.w3.org/2000/svg">
<path d="M22.7973 4.79952H22.8093H22.7973ZM22.7973 4.79952L16.7979 19.1981L28.7967 26.1526L10.7985 43.1957L16.7979 28.7971L4.7991 21.8378L22.7973 4.79952ZM22.7973 2.20496e-06C21.5663 0.0045942 20.3832 0.477325 19.488 1.32227L1.49703 18.3486C0.955013 18.8625 0.540443 19.4959 0.286312 20.1983C0.0321803 20.9007 -0.0544975 21.6528 0.0331755 22.3946C0.205958 23.8968 1.08187 25.2311 2.38974 25.9894L10.7457 30.8393L6.36374 41.3527C6.06127 42.0824 5.94328 42.8754 6.02022 43.6615C6.09717 44.4476 6.36666 45.2027 6.80488 45.8599C7.24309 46.5171 7.83651 47.0562 8.53265 47.4295C9.22879 47.8027 10.0062 47.9987 10.7961 48C11.9912 48 13.1791 47.5536 14.0958 46.6849L32.094 29.6394C32.6356 29.1257 33.05 28.4927 33.3041 27.7908C33.5582 27.0888 33.6451 26.3373 33.5578 25.5958C33.4715 24.8547 33.2135 24.1439 32.8045 23.5199C32.3954 22.8958 31.8465 22.3758 31.2013 22.001L22.8453 17.1583L27.1385 6.85612C27.4856 6.12421 27.6418 5.31636 27.5925 4.50782C27.5433 3.69928 27.2902 2.91635 26.8569 2.23197C26.4236 1.54758 25.8241 0.98401 25.1142 0.593746C24.4044 0.203483 23.6073 -0.000774167 22.7973 2.20496e-06Z" fill="#EE5822"/>
</svg>
