<svg width="678" height="339" viewBox="0 0 678 339" fill="none" xmlns="http://www.w3.org/2000/svg">
<g clip-path="url(#clip0_871_1402)">
<path d="M677.02 336.4H0.979769C0.719918 336.4 0.470709 336.329 0.286967 336.202C0.103225 336.074 0 335.902 0 335.722C0 335.542 0.103225 335.37 0.286967 335.243C0.470709 335.115 0.719918 335.044 0.979769 335.044H677.02C677.28 335.044 677.529 335.115 677.713 335.243C677.897 335.37 678 335.542 678 335.722C678 335.902 677.897 336.074 677.713 336.202C677.529 336.329 677.28 336.4 677.02 336.4Z" fill="#CCCCCC"/>
<path d="M610.106 218.126H212.32C210.631 218.126 209.011 218.591 207.817 219.418C206.623 220.244 205.952 221.365 205.952 222.535C205.952 223.704 206.623 224.825 207.817 225.652C209.011 226.478 210.631 226.943 212.32 226.943H223.587V332.398C223.587 333.567 224.258 334.688 225.453 335.515C226.647 336.341 228.267 336.806 229.956 336.806C231.645 336.806 233.265 336.341 234.459 335.515C235.654 334.688 236.324 333.567 236.324 332.398L236.421 226.943H585.122V332.398C585.122 333.567 585.793 334.688 586.987 335.515C588.182 336.341 589.802 336.806 591.491 336.806C593.18 336.806 594.8 336.341 595.994 335.515C597.188 334.688 597.859 333.567 597.859 332.398V229.267L599.712 226.943H610.106C611.795 226.943 613.415 226.478 614.609 225.652C615.804 224.825 616.475 223.704 616.475 222.535C616.475 221.365 615.804 220.244 614.609 219.418C613.415 218.591 611.795 218.126 610.106 218.126Z" fill="#CCCCCC"/>
<path d="M432.856 220.433H312.362C310.029 220.432 307.792 219.789 306.142 218.647C304.493 217.505 303.565 215.957 303.562 214.342V168.424C303.565 166.809 304.493 165.261 306.142 164.119C307.792 162.977 310.029 162.335 312.362 162.333H432.856C435.189 162.335 437.426 162.977 439.076 164.119C440.725 165.261 441.653 166.809 441.656 168.424V214.342C441.653 215.957 440.725 217.505 439.076 218.647C437.426 219.789 435.189 220.432 432.856 220.433Z" fill="#3F3D56"/>
<path d="M432.855 167.021H312.363C311.825 167.022 311.31 167.17 310.93 167.433C310.55 167.696 310.336 168.053 310.335 168.425V214.343C310.336 214.716 310.55 215.072 310.93 215.335C311.31 215.598 311.825 215.746 312.363 215.747H432.855C433.393 215.746 433.908 215.598 434.288 215.335C434.668 215.072 434.882 214.716 434.883 214.343V168.425C434.882 168.053 434.668 167.696 434.288 167.433C433.908 167.17 433.393 167.022 432.855 167.021Z" fill="white"/>
<path d="M382.886 199.531C382.886 199.531 368.461 197.23 360.528 201.448C352.594 205.666 370.625 215.252 370.625 215.252L382.886 199.531Z" fill="#2F2E41"/>
<path d="M373.316 195.184C380.83 195.184 386.922 190.968 386.922 185.766C386.922 180.565 380.83 176.349 373.316 176.349C365.801 176.349 359.709 180.565 359.709 185.766C359.709 190.968 365.801 195.184 373.316 195.184Z" fill="#A0616A"/>
<path d="M362.794 172.546C363.702 171.48 365.017 170.608 366.595 170.027C368.173 169.446 369.952 169.178 371.736 169.253C373.602 169.415 375.423 169.768 377.14 170.3L386.035 172.702C388.336 173.323 390.857 174.084 391.856 175.648C392.783 177.1 392.091 178.776 391.391 180.288L388.063 187.472C387.694 185.846 387.062 184.254 386.177 182.726C385.278 181.188 383.654 179.906 381.568 179.089C379.258 178.268 376.535 178.285 373.941 178.372C370.268 178.494 366.274 178.817 363.664 180.611C362.278 181.629 361.339 182.899 360.955 184.272C360.577 185.638 360.387 187.026 360.387 188.417C358.881 186.625 357.612 184.742 356.596 182.791C355.76 181.339 355.284 179.8 355.187 178.238C355.1 176.662 355.855 175.12 357.308 173.906C358.046 173.313 359.008 172.874 360.087 172.639C361.165 172.404 362.317 172.382 363.413 172.576L362.794 172.546Z" fill="#2F2E41"/>
<path d="M405.804 207.697C405.676 207.379 405.415 207.094 405.055 206.878C404.694 206.662 404.249 206.525 403.776 206.483C403.744 206.468 403.712 206.455 403.678 206.443L383.366 198.564C382.786 198.339 382.103 198.277 381.459 198.392C380.815 198.507 380.26 198.789 379.909 199.18L374.354 205.405L365.986 199.614L365.853 199.522C365.424 199.224 364.857 199.041 364.252 199.005C363.647 198.968 363.043 199.08 362.545 199.321L345.852 207.413C345.823 207.413 345.793 207.419 345.764 207.419C344.965 207.512 344.235 207.79 343.695 208.208C343.156 208.626 342.838 209.158 342.795 209.718L342.364 215.747H409.027L405.804 207.697Z" fill="#EE5822"/>
<path d="M443.01 214.811H430.148C430.148 214.563 430.005 214.324 429.752 214.148C429.498 213.973 429.153 213.874 428.794 213.874H424.733C424.374 213.874 424.029 213.973 423.775 214.148C423.521 214.324 423.379 214.563 423.379 214.811H419.317C419.317 214.563 419.175 214.324 418.921 214.148C418.667 213.973 418.322 213.874 417.963 213.874H413.902C413.543 213.874 413.198 213.973 412.944 214.148C412.691 214.324 412.548 214.563 412.548 214.811H408.486C408.486 214.563 408.344 214.324 408.09 214.148C407.836 213.973 407.492 213.874 407.132 213.874H403.071C402.712 213.874 402.367 213.973 402.114 214.148C401.86 214.324 401.717 214.563 401.717 214.811H397.655C397.655 214.563 397.513 214.324 397.259 214.148C397.005 213.973 396.661 213.874 396.302 213.874H392.24C391.881 213.874 391.537 213.973 391.283 214.148C391.029 214.324 390.886 214.563 390.886 214.811H386.825C386.825 214.563 386.682 214.324 386.428 214.148C386.174 213.973 385.83 213.874 385.471 213.874H381.409C381.05 213.874 380.706 213.973 380.452 214.148C380.198 214.324 380.055 214.563 380.055 214.811H375.994C375.994 214.563 375.851 214.324 375.597 214.148C375.343 213.973 374.999 213.874 374.64 213.874H370.578C370.219 213.874 369.875 213.973 369.621 214.148C369.367 214.324 369.224 214.563 369.224 214.811H365.163C365.163 214.563 365.02 214.324 364.766 214.148C364.512 213.973 364.168 213.874 363.809 213.874H359.747C359.388 213.874 359.044 213.973 358.79 214.148C358.536 214.324 358.393 214.563 358.393 214.811H354.332C354.332 214.563 354.189 214.324 353.935 214.148C353.681 213.973 353.337 213.874 352.978 213.874H348.916C348.557 213.874 348.213 213.973 347.959 214.148C347.705 214.324 347.563 214.563 347.563 214.811H343.501C343.501 214.563 343.358 214.324 343.104 214.148C342.85 213.973 342.506 213.874 342.147 213.874H338.085C337.726 213.874 337.382 213.973 337.128 214.148C336.874 214.324 336.732 214.563 336.732 214.811H332.67C332.67 214.563 332.527 214.324 332.273 214.148C332.02 213.973 331.675 213.874 331.316 213.874H327.255C326.896 213.874 326.551 213.973 326.297 214.148C326.043 214.324 325.901 214.563 325.901 214.811H321.839C321.839 214.563 321.697 214.324 321.443 214.148C321.189 213.973 320.844 213.874 320.485 213.874H316.424C316.065 213.874 315.72 213.973 315.466 214.148C315.212 214.324 315.07 214.563 315.07 214.811H302.208C301.132 214.812 300.101 215.109 299.34 215.636C298.58 216.163 298.153 216.878 298.153 217.622C298.153 218.367 298.58 219.082 299.34 219.609C300.101 220.136 301.132 220.433 302.208 220.434H443.01C444.087 220.434 445.12 220.138 445.882 219.61C446.643 219.083 447.071 218.368 447.071 217.622C447.071 216.877 446.643 216.162 445.882 215.635C445.12 215.107 444.087 214.811 443.01 214.811Z" fill="#3F3D56"/>
<path d="M281.271 198.485V217.152H213.704C211.894 217.195 210.089 216.986 208.398 216.537C206.707 216.087 205.164 215.407 203.861 214.536C202.559 213.665 201.522 212.621 200.815 211.467C200.107 210.313 199.742 209.072 199.742 207.818C199.742 206.564 200.107 205.323 200.815 204.169C201.522 203.015 202.559 201.972 203.861 201.101C205.164 200.23 206.707 199.549 208.398 199.1C210.089 198.65 211.894 198.441 213.704 198.485H281.271Z" fill="#F2F2F2"/>
<path d="M282.931 217.008C282.931 217.199 282.821 217.381 282.627 217.516C282.432 217.651 282.168 217.726 281.893 217.726H212.501C208.732 217.726 205.117 216.69 202.452 214.845C199.787 213.001 198.29 210.499 198.29 207.89C198.29 205.282 199.787 202.78 202.452 200.935C205.117 199.091 208.732 198.054 212.501 198.054H281.893C282.169 198.054 282.432 198.13 282.627 198.264C282.821 198.399 282.931 198.582 282.931 198.772C282.931 198.963 282.821 199.145 282.627 199.28C282.432 199.414 282.169 199.49 281.893 199.49H212.501C209.284 199.492 206.2 200.378 203.926 201.953C201.653 203.528 200.375 205.664 200.375 207.89C200.375 210.117 201.653 212.252 203.926 213.827C206.2 215.403 209.284 216.288 212.501 216.29H281.893C282.168 216.291 282.432 216.366 282.627 216.501C282.821 216.635 282.931 216.818 282.931 217.008Z" fill="#6C63FF"/>
<path d="M281.271 202.793H208.662C208.635 202.793 208.608 202.789 208.583 202.782C208.557 202.775 208.534 202.764 208.515 202.751C208.495 202.738 208.48 202.722 208.47 202.704C208.459 202.687 208.454 202.668 208.454 202.649C208.454 202.63 208.459 202.611 208.47 202.594C208.48 202.576 208.495 202.56 208.515 202.547C208.534 202.534 208.557 202.523 208.583 202.516C208.608 202.509 208.635 202.505 208.662 202.505H281.271C281.326 202.506 281.378 202.521 281.417 202.548C281.455 202.575 281.477 202.611 281.477 202.649C281.477 202.687 281.455 202.723 281.417 202.75C281.378 202.777 281.326 202.792 281.271 202.793Z" fill="#CCCCCC"/>
<path d="M281.271 206.239H208.662C208.635 206.239 208.608 206.235 208.583 206.228C208.557 206.221 208.534 206.21 208.515 206.197C208.495 206.184 208.48 206.168 208.47 206.15C208.459 206.133 208.454 206.114 208.454 206.095C208.454 206.076 208.459 206.058 208.47 206.04C208.48 206.023 208.495 206.007 208.515 205.993C208.534 205.98 208.557 205.969 208.583 205.962C208.608 205.955 208.635 205.952 208.662 205.952H281.271C281.326 205.952 281.378 205.967 281.417 205.994C281.455 206.021 281.477 206.057 281.477 206.095C281.477 206.133 281.455 206.17 281.417 206.196C281.378 206.223 281.326 206.239 281.271 206.239Z" fill="#CCCCCC"/>
<path d="M281.271 209.685H208.662C208.635 209.685 208.608 209.682 208.583 209.674C208.557 209.667 208.534 209.657 208.515 209.643C208.495 209.63 208.48 209.614 208.47 209.597C208.459 209.579 208.454 209.56 208.454 209.542C208.454 209.523 208.459 209.504 208.47 209.486C208.48 209.469 208.495 209.453 208.515 209.44C208.534 209.426 208.557 209.416 208.583 209.409C208.608 209.401 208.635 209.398 208.662 209.398H281.271C281.326 209.398 281.378 209.413 281.417 209.44C281.455 209.467 281.477 209.504 281.477 209.542C281.477 209.579 281.455 209.616 281.417 209.643C281.378 209.67 281.326 209.685 281.271 209.685Z" fill="#CCCCCC"/>
<path d="M281.271 213.131H208.662C208.635 213.132 208.608 213.128 208.583 213.121C208.557 213.114 208.534 213.103 208.515 213.09C208.495 213.076 208.48 213.06 208.47 213.043C208.459 213.026 208.454 213.007 208.454 212.988C208.454 212.969 208.459 212.95 208.47 212.933C208.48 212.915 208.495 212.899 208.515 212.886C208.534 212.873 208.557 212.862 208.583 212.855C208.608 212.848 208.635 212.844 208.662 212.844H281.271C281.326 212.845 281.378 212.86 281.417 212.887C281.455 212.914 281.477 212.95 281.477 212.988C281.477 213.026 281.455 213.062 281.417 213.089C281.378 213.116 281.326 213.131 281.271 213.131Z" fill="#CCCCCC"/>
<path d="M268.534 178.818V197.485H200.967C199.157 197.529 197.353 197.32 195.662 196.87C193.971 196.421 192.428 195.74 191.125 194.869C189.822 193.998 188.786 192.955 188.078 191.801C187.37 190.646 187.005 189.405 187.005 188.152C187.005 186.898 187.37 185.657 188.078 184.503C188.786 183.349 189.822 182.305 191.125 181.434C192.428 180.563 193.971 179.883 195.662 179.433C197.353 178.984 199.157 178.775 200.967 178.818H268.534Z" fill="#F2F2F2"/>
<path d="M270.194 197.341C270.194 197.532 270.085 197.714 269.89 197.849C269.696 197.984 269.432 198.059 269.157 198.059H199.764C197.898 198.059 196.05 197.805 194.326 197.311C192.602 196.816 191.035 196.092 189.715 195.178C188.396 194.265 187.349 193.181 186.635 191.987C185.921 190.794 185.553 189.515 185.553 188.223C185.553 186.932 185.921 185.653 186.635 184.459C187.349 183.266 188.396 182.181 189.715 181.268C191.035 180.355 192.602 179.63 194.326 179.136C196.05 178.642 197.898 178.387 199.764 178.387H269.157C269.432 178.387 269.696 178.463 269.89 178.597C270.085 178.732 270.194 178.915 270.194 179.105C270.194 179.296 270.085 179.478 269.89 179.613C269.696 179.747 269.432 179.823 269.157 179.823H199.764C196.547 179.825 193.463 180.711 191.189 182.286C188.916 183.861 187.639 185.997 187.639 188.223C187.639 190.45 188.916 192.585 191.189 194.16C193.463 195.736 196.547 196.621 199.764 196.623H269.157C269.432 196.624 269.695 196.699 269.89 196.834C270.084 196.968 270.194 197.151 270.194 197.341Z" fill="#3F3D56"/>
<path d="M268.534 183.126H195.926C195.898 183.126 195.871 183.122 195.846 183.115C195.821 183.108 195.797 183.097 195.778 183.084C195.759 183.071 195.743 183.055 195.733 183.037C195.722 183.02 195.717 183.001 195.717 182.982C195.717 182.963 195.722 182.944 195.733 182.927C195.743 182.909 195.759 182.893 195.778 182.88C195.797 182.867 195.821 182.856 195.846 182.849C195.871 182.842 195.898 182.838 195.926 182.838H268.534C268.589 182.839 268.641 182.854 268.68 182.881C268.718 182.908 268.74 182.944 268.74 182.982C268.74 183.02 268.718 183.056 268.68 183.083C268.641 183.11 268.589 183.125 268.534 183.126Z" fill="#CCCCCC"/>
<path d="M268.534 186.572H195.926C195.898 186.572 195.871 186.568 195.846 186.561C195.821 186.554 195.797 186.543 195.778 186.53C195.759 186.517 195.743 186.501 195.733 186.483C195.722 186.466 195.717 186.447 195.717 186.428C195.717 186.409 195.722 186.391 195.733 186.373C195.743 186.356 195.759 186.34 195.778 186.326C195.797 186.313 195.821 186.302 195.846 186.295C195.871 186.288 195.898 186.285 195.926 186.285H268.534C268.589 186.285 268.641 186.3 268.68 186.327C268.718 186.354 268.74 186.39 268.74 186.428C268.74 186.466 268.718 186.503 268.68 186.529C268.641 186.556 268.589 186.572 268.534 186.572Z" fill="#CCCCCC"/>
<path d="M268.534 190.018H195.926C195.898 190.018 195.871 190.015 195.846 190.008C195.821 190 195.797 189.99 195.778 189.976C195.759 189.963 195.743 189.947 195.733 189.93C195.722 189.912 195.717 189.893 195.717 189.875C195.717 189.856 195.722 189.837 195.733 189.819C195.743 189.802 195.759 189.786 195.778 189.773C195.797 189.759 195.821 189.749 195.846 189.742C195.871 189.734 195.898 189.731 195.926 189.731H268.534C268.589 189.731 268.641 189.746 268.68 189.773C268.718 189.8 268.74 189.837 268.74 189.875C268.74 189.912 268.718 189.949 268.68 189.976C268.641 190.003 268.589 190.018 268.534 190.018Z" fill="#CCCCCC"/>
<path d="M268.534 193.464H195.926C195.898 193.465 195.871 193.461 195.846 193.454C195.821 193.447 195.797 193.436 195.778 193.423C195.759 193.409 195.743 193.394 195.733 193.376C195.722 193.359 195.717 193.34 195.717 193.321C195.717 193.302 195.722 193.283 195.733 193.266C195.743 193.248 195.759 193.232 195.778 193.219C195.797 193.206 195.821 193.195 195.846 193.188C195.871 193.181 195.898 193.177 195.926 193.177H268.534C268.589 193.178 268.641 193.193 268.68 193.22C268.718 193.247 268.74 193.283 268.74 193.321C268.74 193.359 268.718 193.395 268.68 193.422C268.641 193.449 268.589 193.464 268.534 193.464Z" fill="#CCCCCC"/>
<path d="M347.135 283.503V267.227C347.135 266.508 346.722 265.818 345.987 265.309C345.252 264.8 344.256 264.515 343.216 264.515H254.057C253.018 264.515 252.021 264.8 251.286 265.309C250.551 265.818 250.138 266.508 250.138 267.227V283.503H347.135Z" fill="#CCCCCC"/>
<path d="M347.135 289.606H250.138V310.63H347.135V289.606Z" fill="#CCCCCC"/>
<path d="M250.138 316.733V333.009C250.138 333.729 250.551 334.419 251.286 334.928C252.021 335.436 253.018 335.722 254.057 335.722H343.216C344.256 335.722 345.252 335.436 345.987 334.928C346.722 334.419 347.135 333.729 347.135 333.009V316.733H250.138Z" fill="#CCCCCC"/>
<path d="M298.147 276.721C299.77 276.721 301.086 275.81 301.086 274.687C301.086 273.563 299.77 272.652 298.147 272.652C296.523 272.652 295.208 273.563 295.208 274.687C295.208 275.81 296.523 276.721 298.147 276.721Z" fill="white"/>
<path d="M298.147 303.848C299.77 303.848 301.086 302.937 301.086 301.814C301.086 300.69 299.77 299.779 298.147 299.779C296.523 299.779 295.208 300.69 295.208 301.814C295.208 302.937 296.523 303.848 298.147 303.848Z" fill="white"/>
<path d="M298.304 330.401C299.927 330.401 301.243 329.49 301.243 328.366C301.243 327.242 299.927 326.332 298.304 326.332C296.681 326.332 295.365 327.242 295.365 328.366C295.365 329.49 296.681 330.401 298.304 330.401Z" fill="white"/>
<path d="M336.138 245.956V264.623H268.571C266.761 264.667 264.956 264.458 263.265 264.008C261.574 263.559 260.032 262.879 258.729 262.008C257.426 261.137 256.39 260.093 255.682 258.939C254.974 257.785 254.609 256.544 254.609 255.29C254.609 254.036 254.974 252.795 255.682 251.641C256.39 250.487 257.426 249.443 258.729 248.572C260.032 247.701 261.574 247.021 263.265 246.571C264.956 246.122 266.761 245.913 268.571 245.956H336.138Z" fill="#F2F2F2"/>
<path d="M337.798 264.48C337.798 264.67 337.689 264.853 337.494 264.988C337.3 265.122 337.036 265.198 336.761 265.198H267.368C265.501 265.199 263.652 264.946 261.926 264.452C260.201 263.958 258.633 263.234 257.312 262.32C255.991 261.407 254.943 260.322 254.228 259.128C253.513 257.934 253.146 256.654 253.146 255.362C253.146 254.07 253.513 252.79 254.228 251.596C254.943 250.402 255.991 249.317 257.312 248.404C258.633 247.49 260.201 246.766 261.926 246.272C263.652 245.778 265.501 245.525 267.368 245.526H336.761C337.036 245.526 337.3 245.602 337.494 245.736C337.689 245.871 337.798 246.053 337.798 246.244C337.798 246.434 337.689 246.617 337.494 246.752C337.3 246.886 337.036 246.962 336.761 246.962H267.368C264.151 246.964 261.067 247.85 258.793 249.425C256.52 251 255.243 253.135 255.243 255.362C255.243 257.589 256.52 259.724 258.793 261.299C261.067 262.874 264.151 263.76 267.368 263.762H336.761C337.036 263.762 337.299 263.838 337.494 263.972C337.688 264.107 337.798 264.29 337.798 264.48Z" fill="#3F3D56"/>
<path d="M336.138 250.264H263.53C263.502 250.264 263.475 250.261 263.45 250.254C263.425 250.246 263.401 250.236 263.382 250.223C263.363 250.209 263.347 250.193 263.337 250.176C263.326 250.158 263.321 250.14 263.321 250.121C263.321 250.102 263.326 250.083 263.337 250.065C263.347 250.048 263.363 250.032 263.382 250.019C263.401 250.005 263.425 249.995 263.45 249.988C263.475 249.981 263.502 249.977 263.53 249.977H336.138C336.193 249.977 336.245 249.993 336.284 250.019C336.322 250.046 336.344 250.083 336.344 250.121C336.344 250.159 336.322 250.195 336.284 250.222C336.245 250.249 336.193 250.264 336.138 250.264Z" fill="#CCCCCC"/>
<path d="M336.138 253.711H263.53C263.502 253.711 263.475 253.707 263.45 253.7C263.425 253.693 263.401 253.682 263.382 253.669C263.363 253.655 263.347 253.64 263.337 253.622C263.326 253.605 263.321 253.586 263.321 253.567C263.321 253.548 263.326 253.529 263.337 253.512C263.347 253.494 263.363 253.478 263.382 253.465C263.401 253.452 263.425 253.441 263.45 253.434C263.475 253.427 263.502 253.423 263.53 253.423H336.138C336.193 253.424 336.245 253.439 336.284 253.466C336.322 253.493 336.344 253.529 336.344 253.567C336.344 253.605 336.322 253.641 336.284 253.668C336.245 253.695 336.193 253.71 336.138 253.711Z" fill="#CCCCCC"/>
<path d="M336.138 257.157H263.53C263.502 257.157 263.475 257.153 263.45 257.146C263.425 257.139 263.401 257.128 263.382 257.115C263.363 257.102 263.347 257.086 263.337 257.068C263.326 257.051 263.321 257.032 263.321 257.013C263.321 256.994 263.326 256.976 263.337 256.958C263.347 256.941 263.363 256.925 263.382 256.911C263.401 256.898 263.425 256.887 263.45 256.88C263.475 256.873 263.502 256.87 263.53 256.87H336.138C336.193 256.87 336.245 256.885 336.284 256.912C336.322 256.939 336.344 256.975 336.344 257.013C336.344 257.051 336.322 257.088 336.284 257.114C336.245 257.141 336.193 257.157 336.138 257.157Z" fill="#CCCCCC"/>
<path d="M336.138 260.603H263.53C263.502 260.603 263.475 260.6 263.45 260.592C263.425 260.585 263.401 260.575 263.382 260.561C263.363 260.548 263.347 260.532 263.337 260.515C263.326 260.497 263.321 260.478 263.321 260.46C263.321 260.441 263.326 260.422 263.337 260.404C263.347 260.387 263.363 260.371 263.382 260.358C263.401 260.344 263.425 260.334 263.45 260.327C263.475 260.319 263.502 260.316 263.53 260.316H336.138C336.193 260.316 336.245 260.331 336.284 260.358C336.322 260.385 336.344 260.422 336.344 260.46C336.344 260.497 336.322 260.534 336.284 260.561C336.245 260.588 336.193 260.603 336.138 260.603Z" fill="#CCCCCC"/>
<path d="M245.05 124.119V5.10079C245.053 3.74845 245.83 2.45194 247.211 1.49569C248.593 0.539441 250.466 0.00153824 252.42 0H388.341C390.295 0.0015472 392.168 0.539453 393.55 1.4957C394.931 2.45195 395.708 3.74846 395.711 5.10079V124.119C395.708 125.471 394.931 126.768 393.55 127.724C392.168 128.68 390.295 129.218 388.341 129.22H252.42C250.466 129.218 248.593 128.68 247.211 127.724C245.83 126.768 245.053 125.471 245.05 124.119ZM252.42 1.13351C250.9 1.13469 249.443 1.55305 248.369 2.2968C247.294 3.04056 246.69 4.04897 246.688 5.10079V124.119C246.69 125.171 247.294 126.179 248.369 126.923C249.443 127.667 250.9 128.085 252.42 128.086H388.341C389.861 128.085 391.318 127.667 392.392 126.923C393.467 126.179 394.071 125.171 394.073 124.119V5.10079C394.071 4.04897 393.467 3.04056 392.392 2.2968C391.318 1.55305 389.861 1.13469 388.341 1.13351H252.42Z" fill="#E6E6E6"/>
<path d="M328.002 54.6586V30.2203C328.004 29.5441 328.392 28.8959 329.083 28.4178C329.774 27.9396 330.71 27.6707 331.687 27.6699H361.606C362.583 27.6707 363.52 27.9396 364.21 28.4178C364.901 28.8959 365.29 29.5441 365.291 30.2203V54.6586C365.29 55.3347 364.901 55.983 364.21 56.4611C363.52 56.9392 362.583 57.2082 361.606 57.2089H331.687C330.71 57.2082 329.774 56.9392 329.083 56.4611C328.392 55.983 328.004 55.3347 328.002 54.6586Z" fill="#EE5822"/>
<path d="M269.867 65.9939V41.5558C269.868 40.8796 270.257 40.2313 270.948 39.7532C271.638 39.2751 272.575 39.0061 273.552 39.0054H303.471C304.448 39.0061 305.385 39.2751 306.075 39.7532C306.766 40.2313 307.155 40.8796 307.156 41.5558V65.994C307.155 66.6702 306.766 67.3184 306.075 67.7966C305.385 68.2747 304.448 68.5436 303.471 68.5444H273.552C272.575 68.5436 271.638 68.2747 270.948 67.7965C270.257 67.3184 269.868 66.6701 269.867 65.9939Z" fill="#CCCCCC"/>
<path d="M316.539 100.566V76.1275C316.54 75.4514 316.929 74.8031 317.619 74.325C318.31 73.8468 319.247 73.5779 320.224 73.5771H350.143C351.12 73.5779 352.056 73.8468 352.747 74.325C353.438 74.8031 353.826 75.4514 353.828 76.1275V100.566C353.826 101.242 353.438 101.89 352.747 102.368C352.056 102.846 351.12 103.115 350.143 103.116H320.224C319.247 103.115 318.31 102.846 317.619 102.368C316.929 101.89 316.54 101.242 316.539 100.566Z" fill="#FF6584"/>
<path d="M495.335 212.296H464.55C464.258 212.296 463.97 212.342 463.708 212.431L455.938 215.124C455.683 215.199 455.464 215.325 455.311 215.485C455.158 215.645 455.076 215.833 455.076 216.026C455.076 216.218 455.158 216.406 455.311 216.566C455.464 216.727 455.683 216.852 455.938 216.928L463.708 219.62C463.97 219.709 464.258 219.756 464.55 219.756H495.335C495.759 219.773 496.176 219.673 496.495 219.479C496.814 219.285 497.01 219.011 497.04 218.718V213.333C497.01 213.04 496.814 212.767 496.495 212.572C496.176 212.378 495.759 212.279 495.335 212.296Z" fill="#3F3D56"/>
<path d="M497.04 213.333V218.718C497.01 219.011 496.814 219.284 496.495 219.479C496.176 219.673 495.759 219.772 495.335 219.755H489.202V212.295H495.335C495.759 212.278 496.176 212.378 496.495 212.572C496.814 212.766 497.01 213.04 497.04 213.333Z" fill="#6C63FF"/>
<path d="M495.103 172.012C496.497 171.596 498.003 171.388 499.522 171.402C501.04 171.416 502.537 171.653 503.915 172.095C505.292 172.538 506.519 173.177 507.514 173.971C508.51 174.765 509.252 175.695 509.692 176.701C509.829 177.02 509.934 177.345 510.006 177.675L553.055 192.451L563.018 187.881L575.413 197.758L560.202 206.31C558.372 207.33 556.116 207.915 553.769 207.978C551.421 208.041 549.107 207.578 547.169 206.658L503.492 185.751C503.167 185.847 502.835 185.93 502.498 186.002C501.044 186.307 499.514 186.395 498.007 186.261C496.501 186.128 495.052 185.775 493.756 185.227C492.46 184.679 491.346 183.947 490.487 183.081C489.628 182.214 489.043 181.231 488.771 180.197C488.69 179.896 488.637 179.593 488.612 179.288C488.49 177.762 489.048 176.246 490.208 174.945C491.369 173.644 493.077 172.621 495.103 172.012Z" fill="#FFB8B8"/>
<path d="M584.766 262.988H537.728C537.728 263.924 489.249 264.683 489.249 264.683C488.488 265.08 487.794 265.535 487.182 266.04C485.34 267.56 484.334 269.481 484.34 271.465V272.821C484.341 275.069 485.632 277.225 487.928 278.815C490.225 280.404 493.339 281.297 496.587 281.298H584.766C588.013 281.296 591.127 280.403 593.423 278.813C595.719 277.224 597.01 275.069 597.013 272.821V271.465C597.009 269.218 595.717 267.063 593.421 265.474C591.125 263.885 588.013 262.991 584.766 262.988Z" fill="#3F3D56"/>
<path d="M533.599 337.927H546.336V280.961H533.599V337.927Z" fill="#3F3D56"/>
<path d="M497.348 337.618C497.348 338.57 516.649 337.986 540.457 337.986C564.266 337.986 583.567 338.57 583.567 337.618C583.567 336.665 564.266 329.111 540.457 329.111C516.649 329.111 497.348 336.665 497.348 337.618Z" fill="#3F3D56"/>
<path d="M508.846 330.941L496.835 330.94L491.12 309.376L508.848 309.377L508.846 330.941Z" fill="#FFB8B8"/>
<path d="M511.91 339L473.179 338.999V338.66C473.179 337.29 473.569 335.933 474.326 334.667C475.084 333.401 476.194 332.251 477.594 331.282C478.994 330.313 480.656 329.544 482.485 329.02C484.314 328.495 486.274 328.226 488.254 328.226H488.255L511.91 328.226L511.91 339Z" fill="#2F2E41"/>
<path d="M490.88 317.569L466.934 280.4C464.935 277.267 464.714 273.728 466.315 270.488C467.916 267.247 471.222 264.543 475.574 262.914L527.515 243.635L551.217 242.24L573.08 240.864L573.238 241.049C573.439 241.285 578.14 246.905 574.963 253.067C572.552 257.742 566.283 261.393 556.329 263.919C533.094 269.816 506.253 274.856 495.792 276.749C495.33 276.831 494.898 276.979 494.524 277.185C494.151 277.391 493.845 277.649 493.626 277.942C493.406 278.232 493.276 278.551 493.243 278.877C493.21 279.204 493.275 279.532 493.433 279.84L515.681 314.437C515.913 314.876 515.997 315.345 515.925 315.81C515.854 316.275 515.629 316.722 515.268 317.117C514.908 317.512 514.421 317.845 513.845 318.089C513.27 318.333 512.621 318.483 511.948 318.526L495.325 319.363C495.184 319.373 495.043 319.377 494.904 319.377C494.052 319.377 493.219 319.206 492.505 318.885C491.791 318.564 491.227 318.107 490.88 317.569Z" fill="#2F2E41"/>
<path d="M514.725 330.941L502.714 330.94L496.999 309.376L514.726 309.377L514.725 330.941Z" fill="#FFB8B8"/>
<path d="M517.788 339L479.057 338.999V338.66C479.057 337.29 479.447 335.933 480.205 334.667C480.962 333.401 482.073 332.251 483.473 331.282C484.872 330.313 486.534 329.544 488.363 329.02C490.192 328.495 492.153 328.226 494.132 328.226H494.133L517.789 328.226L517.788 339Z" fill="#2F2E41"/>
<path d="M497.739 319.603L473.792 282.435C471.793 279.302 471.572 275.763 473.173 272.522C474.774 269.282 478.08 266.578 482.433 264.949L534.374 245.67L558.075 244.274L579.938 242.899L580.096 243.084C580.298 243.319 584.999 248.94 581.821 255.102C579.411 259.776 573.141 263.427 563.187 265.954C539.952 271.851 513.112 276.891 502.651 278.784C502.188 278.865 501.756 279.014 501.383 279.22C501.009 279.425 500.703 279.683 500.484 279.977C500.265 280.267 500.134 280.585 500.101 280.912C500.068 281.239 500.133 281.567 500.292 281.875L522.539 316.472C522.771 316.91 522.855 317.38 522.784 317.845C522.712 318.31 522.487 318.757 522.127 319.152C521.766 319.547 521.279 319.879 520.704 320.123C520.128 320.368 519.479 320.517 518.807 320.56L502.183 321.398C502.042 321.407 501.902 321.412 501.762 321.412C500.911 321.412 500.078 321.241 499.364 320.92C498.65 320.599 498.085 320.142 497.739 319.603Z" fill="#2F2E41"/>
<path d="M485.803 206.057C475.74 196.792 467.785 186.516 462.215 175.586C461.892 174.932 461.915 174.22 462.279 173.577C462.644 172.934 463.326 172.401 464.205 172.073L498.64 159.302C499.197 159.094 499.815 158.977 500.448 158.959C501.08 158.941 501.71 159.024 502.29 159.2C502.88 159.377 503.404 159.646 503.822 159.985C504.24 160.324 504.541 160.724 504.701 161.156C508.709 171.689 516.243 181.421 526.693 189.564C527.123 189.896 527.438 190.291 527.615 190.72C527.791 191.148 527.823 191.599 527.71 192.037C527.601 192.469 527.351 192.878 526.979 193.233C526.608 193.587 526.124 193.879 525.565 194.084L491.131 206.855C490.25 207.18 489.231 207.279 488.255 207.132C487.28 206.986 486.411 206.605 485.803 206.057Z" fill="#CCCCCC"/>
<path d="M488.153 204.835C488.338 204.995 488.599 205.105 488.889 205.147C489.179 205.188 489.481 205.158 489.742 205.062L524.177 192.291C524.344 192.231 524.489 192.144 524.6 192.039C524.711 191.933 524.785 191.811 524.816 191.683C524.852 191.547 524.842 191.407 524.787 191.274C524.732 191.142 524.633 191.02 524.498 190.918C513.74 182.534 505.984 172.515 501.858 161.672C501.811 161.538 501.719 161.413 501.59 161.308C501.461 161.203 501.299 161.12 501.116 161.065C500.943 161.012 500.755 160.987 500.566 160.992C500.378 160.997 500.193 161.033 500.028 161.096L465.594 173.867C465.333 173.964 465.13 174.122 465.019 174.312C464.908 174.503 464.897 174.714 464.987 174.909C470.458 185.644 478.271 195.736 488.153 204.835Z" fill="white"/>
<path d="M600.199 202.651L573.231 209.744L566.647 197.085C565.773 195.404 565.785 193.563 566.682 191.888C567.579 190.212 569.302 188.811 571.548 187.93C573.82 187.039 576.477 186.739 579.039 187.086C581.602 187.432 583.901 188.401 585.522 189.818L600.199 202.651Z" fill="#6C63FF"/>
<path d="M531.606 252.808C531.038 252.53 530.563 252.172 530.211 251.757C529.859 251.342 529.638 250.88 529.565 250.401C526.11 228.083 528.516 210.617 536.919 197.006C538.398 194.658 540.628 192.573 543.439 190.908C546.251 189.242 549.571 188.039 553.15 187.39L574.95 186.628L575.063 186.666C579.982 188.333 583.993 191.054 586.503 194.424C589.012 197.794 589.886 201.634 588.994 205.375C581.983 218.168 576.112 231.487 580.589 242.231C580.777 242.68 580.832 243.151 580.75 243.615C580.669 244.079 580.453 244.527 580.115 244.932C579.788 245.324 579.348 245.665 578.823 245.934C578.298 246.203 577.699 246.395 577.062 246.498L535.541 253.335C534.869 253.446 534.17 253.456 533.491 253.365C532.813 253.274 532.17 253.084 531.606 252.808Z" fill="#EE5822"/>
<path d="M567.674 180.992C580.964 180.992 591.738 173.535 591.738 164.336C591.738 155.137 580.964 147.679 567.674 147.679C554.384 147.679 543.61 155.137 543.61 164.336C543.61 173.535 554.384 180.992 567.674 180.992Z" fill="#FFB8B8"/>
<path d="M500.9 177.528L482.146 183.258C481.432 183.476 480.624 183.488 479.897 183.293C479.171 183.098 478.585 182.712 478.27 182.219L477.806 181.491C477.492 180.998 477.474 180.438 477.755 179.935C478.037 179.432 478.595 179.027 479.308 178.809L498.062 173.078C498.776 172.861 499.584 172.848 500.311 173.043C501.037 173.238 501.623 173.625 501.938 174.118L502.402 174.845C502.716 175.339 502.734 175.899 502.453 176.402C502.171 176.905 501.613 177.31 500.9 177.528Z" fill="#CCCCCC"/>
<path d="M507.759 186.344L489.004 192.074C488.291 192.292 487.482 192.304 486.756 192.109C486.029 191.914 485.444 191.528 485.128 191.035L484.664 190.307C484.35 189.814 484.332 189.254 484.614 188.751C484.895 188.248 485.454 187.843 486.166 187.624L504.921 181.894C505.634 181.677 506.443 181.664 507.169 181.859C507.896 182.054 508.481 182.441 508.797 182.934L509.261 183.661C509.574 184.155 509.593 184.715 509.311 185.218C509.029 185.721 508.471 186.126 507.759 186.344Z" fill="#CCCCCC"/>
<path d="M522.222 220.779L480.411 197.948C480.078 198.029 479.739 198.099 479.396 198.156C477.92 198.394 476.388 198.416 474.9 198.218C473.411 198.021 471.999 197.608 470.756 197.008C469.505 196.408 468.453 195.63 467.671 194.725C466.889 193.821 466.396 192.811 466.223 191.764C465.943 190.09 466.488 188.399 467.77 186.967C469.052 185.534 470.996 184.443 473.286 183.871C474.716 183.516 476.238 183.375 477.752 183.455C479.266 183.535 480.739 183.836 482.073 184.338C483.407 184.84 484.574 185.531 485.495 186.367C486.417 187.202 487.073 188.163 487.421 189.186C487.529 189.511 487.604 189.84 487.645 190.171L529.267 206.791L539.625 202.664L551.099 213.061L535.017 220.995C533.134 221.916 530.873 222.393 528.568 222.354C526.263 222.315 524.037 221.763 522.222 220.779Z" fill="#FFB8B8"/>
<path d="M556.201 216.3L532.345 205.071L543.556 194.08C545.045 192.621 547.231 191.572 549.728 191.121C552.225 190.669 554.873 190.843 557.203 191.611C559.56 192.389 561.438 193.724 562.497 195.376C563.556 197.028 563.726 198.888 562.978 200.619L556.201 216.3Z" fill="#6C63FF"/>
<path d="M558.852 161.855C552.667 164.785 544.546 167.797 538.229 164.676C534.081 162.628 532.774 158.834 534.456 155.504C537.481 149.517 545.791 146.881 553.738 144.861C564.069 142.234 575.318 140.145 585.984 142.026C596.649 143.907 606.074 151.054 604.149 158.555C602.601 164.586 594.381 169.605 595.548 175.678C596.722 181.79 606.652 185.007 615.419 186.099C624.186 187.191 633.996 187.542 640.296 191.901C648.333 197.461 646.326 207.399 638.763 213.27C631.201 219.14 619.788 221.801 608.73 223.61C594.078 226.007 578.23 227.267 564.315 223.289C550.399 219.311 539.57 208.604 543.601 198.563C545.304 194.322 549.315 190.738 553.192 187.248C557.068 183.759 560.994 180.11 562.473 175.829C563.705 172.261 562.793 168.119 559.375 165.442C558.753 164.974 558.362 164.381 558.257 163.749C558.152 163.117 558.34 162.479 558.792 161.925L558.852 161.855Z" fill="#2F2E41"/>
<path d="M106.866 242.783C100.665 244.292 94.007 244.669 87.5339 243.88C81.0608 243.091 74.9904 241.161 69.9076 238.277C56.9629 230.756 52.9043 218.367 49.602 206.894C46.3462 195.584 43.0903 184.273 39.8345 172.962L60.2839 182.708C74.9898 189.717 90.0271 196.951 100.209 207.103C110.392 217.255 114.836 231.113 106.655 242.098" fill="#E6E6E6"/>
<path d="M105.118 283.865C107.187 273.43 109.316 262.86 107.864 252.313C106.575 242.946 102.446 233.797 94.0405 226.296C89.5789 222.322 84.1501 218.917 77.998 216.234C76.3937 215.533 74.9171 217.293 76.5144 217.99C87.1594 222.647 95.3928 229.523 100.028 237.628C105.147 246.64 105.969 256.465 105.087 266.038C104.553 271.828 103.423 277.58 102.283 283.324C102.194 283.584 102.25 283.858 102.44 284.09C102.631 284.322 102.942 284.496 103.31 284.575C103.686 284.646 104.086 284.61 104.425 284.477C104.763 284.344 105.012 284.124 105.118 283.865Z" fill="#F2F2F2"/>
<path d="M85.1821 265.4C82.5227 268.198 78.8671 270.474 74.5676 272.01C70.2681 273.546 65.4695 274.29 60.6343 274.169C48.2077 273.761 37.8479 267.758 28.5222 262.059L0.938477 245.201L19.1943 244.597C32.3228 244.162 45.7901 243.756 58.2945 246.558C70.799 249.361 82.3313 256.105 84.6178 265.064" fill="#E6E6E6"/>
<path d="M110.967 289.864C101.005 277.663 89.4497 264.103 68.8027 259.769C63.0618 258.568 57.0421 258.138 51.0678 258.501C49.1849 258.614 49.6551 260.623 51.5346 260.51C61.5488 259.935 71.5438 261.765 79.8367 265.693C87.8168 269.453 94.0302 274.68 99.2891 280.223C102.51 283.618 105.396 287.158 108.282 290.692C109.204 291.822 111.9 291.007 110.967 289.864Z" fill="#F2F2F2"/>
<path d="M126.929 302.706C126.593 300.014 125.197 297.438 122.892 295.257C120.587 293.076 117.461 291.375 113.856 290.339V283.285H96.7642V290.561C93.3364 291.648 90.3864 293.345 88.215 295.479C86.0435 297.612 84.7283 300.106 84.4033 302.706L80.3843 335.044H130.948L126.929 302.706Z" fill="#F2F2F2"/>
</g>
<defs>
<clipPath id="clip0_871_1402">
<rect width="678" height="339" fill="white"/>
</clipPath>
</defs>
</svg>
