<svg width="43" height="43" viewBox="0 0 43 43" fill="none" xmlns="http://www.w3.org/2000/svg">
<rect width="42.9291" height="42.1598" rx="6.45161" fill="#FFA879"/>
<path d="M18.3141 26.1532L21.4641 24.2532L24.6141 26.1782L23.7891 22.5782L26.5641 20.1782L22.9141 19.8532L21.4641 16.4532L20.0141 19.8282L16.3641 20.1532L19.1391 22.5782L18.3141 26.1532ZM21.4641 26.6032L17.3141 29.1032C17.1307 29.2199 16.9391 29.2699 16.7391 29.2532C16.5391 29.2365 16.3641 29.1699 16.2141 29.0532C16.0641 28.9365 15.9474 28.7909 15.8641 28.6162C15.7807 28.4415 15.7641 28.2455 15.8141 28.0282L16.9141 23.3032L13.2391 20.1282C13.0724 19.9782 12.9684 19.8072 12.9271 19.6152C12.8857 19.4232 12.8981 19.2359 12.9641 19.0532C13.0301 18.8705 13.1301 18.7205 13.2641 18.6032C13.3981 18.4859 13.5814 18.4109 13.8141 18.3782L18.6641 17.9532L20.5391 13.5032C20.6224 13.3032 20.7517 13.1532 20.9271 13.0532C21.1024 12.9532 21.2814 12.9032 21.4641 12.9032C21.6467 12.9032 21.8257 12.9532 22.0011 13.0532C22.1764 13.1532 22.3057 13.3032 22.3891 13.5032L24.2641 17.9532L29.1141 18.3782C29.3474 18.4115 29.5307 18.4865 29.6641 18.6032C29.7974 18.7199 29.8974 18.8699 29.9641 19.0532C30.0307 19.2365 30.0434 19.4242 30.0021 19.6162C29.9607 19.8082 29.8564 19.9789 29.6891 20.1282L26.0141 23.3032L27.1141 28.0282C27.1641 28.2449 27.1474 28.4409 27.0641 28.6162C26.9807 28.7915 26.8641 28.9372 26.7141 29.0532C26.5641 29.1692 26.3891 29.2359 26.1891 29.2532C25.9891 29.2705 25.7974 29.2205 25.6141 29.1032L21.4641 26.6032Z" fill="#EB6016"/>
</svg>
